<svg xmlns="http://www.w3.org/2000/svg" xmlns:xlink="http://www.w3.org/1999/xlink" viewBox="0 0 64 64" id="server"><path fill="#b18c56" d="m41 57.72-14.91-8.11 17.13-2.41 14.91 8.12z"></path><path fill="#b18c56" d="m37.82 58.17-14.91-8.11 3.18-.45L41 57.72z"></path><path fill="#b18c56" d="M20.68 60.58 5.77 52.47l17.14-2.41 14.91 8.11z"></path><path fill="#8b6f42" d="M20.68 64 5.77 55.89v-3.42l14.91 8.11z"></path><path fill="#d3a666" d="m58.13 55.32-.01 3.42L20.68 64v-3.42l17.14-2.41 3.18-.45z"></path><defs><path id="a" d="m56.89 48.98-14.91-8.11c.11.06.25.09.39.07.41-.06.74-.46.74-.9l14.91 8.11c0 .44-.34.85-.74.9-.14.02-.27 0-.39-.07z"></path></defs><clipPath id="b"><use overflow="visible" xlink:href="#a"></use></clipPath><g clip-path="url(#b)"><path fill="#263f56" d="m56.89 48.98-14.91-8.11c.01 0 .02.01.02.01L56.91 49c0-.01-.01-.01-.02-.02"></path><path fill="#274058" d="M56.91 49 42 40.88c.04.02.08.03.12.04l14.91 8.11c-.04 0-.08-.02-.12-.03"></path><path fill="#284159" d="m57.03 49.04-14.91-8.11c.08.02.16.03.25.01.07-.01.15-.03.21-.06l14.91 8.11a.83.83 0 0 1-.21.06c-.08.01-.17.01-.25-.01"></path><path fill="#274058" d="m57.5 48.99-14.91-8.11c.04-.02.08-.04.12-.07l14.91 8.11c-.04.03-.08.05-.12.07"></path><path fill="#263f56" d="m57.62 48.92-14.91-8.11c.03-.02.06-.05.09-.07l14.91 8.11c-.03.02-.06.05-.09.07"></path><path fill="#253e55" d="M57.71 48.85 42.8 40.74c.03-.02.05-.05.08-.08l14.91 8.11-.08.08"></path><path fill="#243c53" d="m57.78 48.77-14.91-8.11c.02-.03.05-.06.07-.09l14.91 8.11c-.02.03-.04.06-.07.09"></path><path fill="#233b52" d="m57.85 48.68-14.91-8.11c.02-.03.04-.06.06-.1l14.91 8.11c-.02.04-.04.07-.06.1"></path><path fill="#223a51" d="M57.91 48.59 43 40.48c.02-.04.04-.08.06-.13l14.91 8.11c-.02.04-.04.09-.06.13"></path><path fill="#21394f" d="m57.97 48.46-14.91-8.11c.04-.1.06-.2.06-.31l14.91 8.11c0 .11-.02.21-.06.31"></path></g><defs><path id="c" d="m56.89 48.98-14.91-8.11c-.21-.11-.35-.34-.35-.63l14.91 8.11c.01.29.14.52.35.63z"></path></defs><clipPath id="d"><use overflow="visible" xlink:href="#c"></use></clipPath><g clip-path="url(#d)"><path fill="#1d364b" d="m56.89 48.98-14.91-8.11c-.21-.11-.35-.34-.35-.63l14.91 8.11c.01.29.14.52.35.63"></path></g><defs><path id="e" d="m46.45 30.97 14.91 8.11a1.23 1.23 0 0 0-.77-.13l-14.91-8.11c.28-.04.54.01.77.13z"></path></defs><clipPath id="f"><use overflow="visible" xlink:href="#e"></use></clipPath><g clip-path="url(#f)"><path fill="#284159" d="m60.59 38.95-14.91-8.11c.17-.02.34-.01.5.03l14.91 8.11c-.16-.04-.33-.05-.5-.03"></path><path fill="#274058" d="m61.09 38.98-14.91-8.11c.08.02.15.05.23.08l14.91 8.11c-.08-.03-.15-.06-.23-.08"></path><path fill="#263f56" d="M61.31 39.06 46.4 30.95c.01.01.03.01.04.02l14.91 8.11c-.01 0-.02-.01-.04-.02"></path></g><path fill="#20384e" d="m58.03 48.15-14.91-8.11.01-5.64 14.91 8.12z"></path><defs><path id="g" d="m42.78 33.78 14.91 8.11c.21.11.35.34.35.63L43.13 34.4c0-.28-.14-.51-.35-.62z"></path></defs><clipPath id="h"><use overflow="visible" xlink:href="#g"></use></clipPath><g clip-path="url(#h)"><path fill="#21394f" d="M58.04 42.52 43.13 34.4a.71.71 0 0 0-.35-.63l14.91 8.11c.21.12.35.35.35.64"></path></g><defs><path id="i" d="m53.26 49.49-14.91-8.11c.11.06.25.09.4.07.41-.06.74-.46.74-.9l14.91 8.11c0 .44-.34.85-.74.9-.15.02-.29 0-.4-.07z"></path></defs><clipPath id="j"><use overflow="visible" xlink:href="#i"></use></clipPath><g clip-path="url(#j)"><path fill="#263f56" d="m53.26 49.49-14.91-8.11c.01 0 .01.01.02.01l14.91 8.11s-.01 0-.02-.01"></path><path fill="#274058" d="M53.28 49.51 38.37 41.4c.04.02.08.03.12.04l14.91 8.11c-.04-.01-.08-.03-.12-.04"></path><path fill="#284159" d="m53.4 49.55-14.91-8.11c.08.02.17.03.26.01.07-.01.15-.03.21-.06l14.91 8.11a.83.83 0 0 1-.21.06c-.09.02-.18.01-.26-.01"></path><path fill="#274058" d="m53.87 49.5-14.91-8.11c.04-.02.08-.04.12-.07l14.91 8.11c-.04.03-.08.05-.12.07"></path><path fill="#263f56" d="m53.99 49.43-14.91-8.11c.03-.02.06-.05.09-.07l14.91 8.11c-.03.02-.06.05-.09.07"></path><path fill="#253e55" d="m54.08 49.36-14.91-8.11c.03-.02.05-.05.08-.08l14.91 8.11-.08.08"></path><path fill="#243c53" d="m54.16 49.28-14.91-8.11c.02-.03.05-.06.07-.09l14.91 8.11c-.03.03-.05.06-.07.09"></path><path fill="#233b52" d="m54.22 49.19-14.91-8.11c.02-.03.04-.06.06-.1l14.91 8.11c-.01.04-.03.07-.06.1"></path><path fill="#223a51" d="m54.28 49.1-14.91-8.11c.02-.04.04-.08.06-.13l14.91 8.11c-.01.04-.03.09-.06.13"></path><path fill="#21394f" d="m54.34 48.97-14.91-8.11c.04-.1.06-.2.06-.31l14.91 8.11c0 .11-.02.21-.06.31"></path></g><defs><path id="k" d="m42.78 33.78 14.91 8.11a.638.638 0 0 0-.39-.07l-14.91-8.11c.14-.02.28.01.39.07z"></path></defs><clipPath id="l"><use overflow="visible" xlink:href="#k"></use></clipPath><g clip-path="url(#l)"><path fill="#223c52" d="m57.3 41.82-14.91-8.11c.09-.01.17-.01.25.01l14.91 8.11a.692.692 0 0 0-.25-.01"></path><path fill="#213b51" d="m57.55 41.83-14.91-8.11c.04.01.08.03.12.04l14.91 8.11c-.04-.01-.08-.03-.12-.04"></path><path fill="#203a50" d="m57.67 41.88-14.91-8.11c.01 0 .02.01.02.01l14.91 8.11c-.01-.01-.01-.01-.02-.01"></path></g><path fill="#1c354a" d="m56.55 48.36-14.91-8.11.01-5.64 14.91 8.11z"></path><defs><path id="m" d="m56.56 42.72-14.91-8.11c0-.44.34-.85.74-.9l14.91 8.11c-.41.06-.74.46-.74.9z"></path></defs><clipPath id="n"><use overflow="visible" xlink:href="#m"></use></clipPath><g clip-path="url(#n)"><path fill="#1d364b" d="m56.56 42.72-14.91-8.11c0-.11.02-.21.06-.31l14.91 8.11c-.04.1-.06.21-.06.31"></path><path fill="#1d364b" d="M56.61 42.41 41.7 34.3c.02-.04.03-.09.06-.13l14.91 8.11c-.02.05-.04.09-.06.13"></path><path fill="#1e384d" d="m56.67 42.29-14.91-8.11c.02-.03.04-.07.06-.1l14.91 8.11c-.02.03-.04.06-.06.1"></path><path fill="#1f384d" d="m56.73 42.19-14.91-8.11a.55.55 0 0 1 .07-.09L56.8 42.1a.55.55 0 0 0-.07.09"></path><path fill="#20394f" d="m56.8 42.1-14.91-8.11c.02-.03.05-.05.08-.08l14.91 8.11-.08.08"></path><path fill="#203a50" d="m56.87 42.03-14.91-8.11a.55.55 0 0 1 .09-.07l14.91 8.11a.55.55 0 0 0-.09.07"></path><path fill="#213b51" d="m56.96 41.95-14.91-8.11c.04-.03.08-.05.12-.07l14.91 8.11c-.04.02-.08.05-.12.07"></path><path fill="#223c52" d="m57.08 41.88-14.91-8.11a.83.83 0 0 1 .21-.06l14.91 8.11a.83.83 0 0 0-.21.06"></path></g><defs><path id="o" d="m53.26 49.49-14.91-8.11c-.21-.11-.34-.34-.34-.63l14.91 8.11c0 .29.13.52.34.63z"></path></defs><clipPath id="p"><use overflow="visible" xlink:href="#o"></use></clipPath><g clip-path="url(#p)"><path fill="#1d364b" d="m53.26 49.49-14.91-8.11c-.21-.11-.34-.34-.34-.63l14.91 8.11c0 .29.13.52.34.63"></path></g><path fill="#20384e" d="m54.4 48.66-14.91-8.11.01-5.64 14.91 8.12z"></path><defs><path id="q" d="m39.15 34.29 14.91 8.11c.21.11.35.34.35.63L39.5 34.91c0-.28-.14-.51-.35-.62z"></path></defs><clipPath id="r"><use overflow="visible" xlink:href="#q"></use></clipPath><g clip-path="url(#r)"><path fill="#21394f" d="M54.41 43.03 39.5 34.91a.71.71 0 0 0-.35-.63l14.91 8.11c.21.12.35.35.35.64"></path></g><defs><path id="s" d="m49.63 50-14.91-8.11c.11.06.25.09.4.07.41-.06.74-.46.74-.9l14.91 8.11c0 .44-.34.85-.74.9-.15.02-.28 0-.4-.07z"></path></defs><clipPath id="t"><use overflow="visible" xlink:href="#s"></use></clipPath><g clip-path="url(#t)"><path fill="#263f56" d="m49.63 50-14.91-8.11c.01 0 .01.01.02.01l14.91 8.11s-.01 0-.02-.01"></path><path fill="#274058" d="m49.65 50.02-14.91-8.11c.04.02.08.03.12.04l14.91 8.11c-.04-.01-.08-.03-.12-.04"></path><path fill="#284159" d="m49.77 50.06-14.91-8.11c.08.02.17.03.26.01.07-.01.15-.03.21-.06l14.91 8.11a.83.83 0 0 1-.21.06c-.09.02-.18.01-.26-.01"></path><path fill="#274058" d="M50.24 50.01 35.33 41.9c.04-.02.08-.04.12-.07l14.91 8.11c-.04.03-.08.05-.12.07"></path><path fill="#263f56" d="m50.36 49.94-14.91-8.11c.03-.02.06-.05.09-.07l14.91 8.11c-.03.02-.06.05-.09.07"></path><path fill="#253e55" d="m50.45 49.87-14.91-8.11c.03-.02.05-.05.08-.08l14.91 8.11-.08.08"></path><path fill="#243c53" d="m50.53 49.79-14.91-8.11c.02-.03.05-.06.07-.09L50.6 49.7a.55.55 0 0 0-.07.09"></path><path fill="#233b52" d="m50.6 49.7-14.91-8.11c.02-.03.04-.06.06-.1l14.91 8.11c-.02.04-.04.07-.06.1"></path><path fill="#223a51" d="M50.66 49.61 35.75 41.5c.02-.04.04-.08.06-.13l14.91 8.11c-.02.04-.04.09-.06.13"></path><path fill="#21394f" d="M50.71 49.48 35.8 41.37c.04-.1.06-.2.06-.31l14.91 8.11c0 .11-.02.21-.06.31"></path></g><defs><path id="u" d="m39.15 34.29 14.91 8.11a.638.638 0 0 0-.39-.07l-14.91-8.11c.14-.02.28.01.39.07z"></path></defs><clipPath id="v"><use overflow="visible" xlink:href="#u"></use></clipPath><g clip-path="url(#v)"><path fill="#223c52" d="m53.67 42.33-14.91-8.11c.09-.01.17-.01.25.01l14.91 8.11a.692.692 0 0 0-.25-.01"></path><path fill="#213b51" d="m53.92 42.34-14.91-8.11c.04.01.08.03.12.04l14.91 8.11c-.04-.01-.08-.03-.12-.04"></path><path fill="#203a50" d="m54.04 42.39-14.91-8.11c.01 0 .02.01.02.01l14.91 8.11c-.01-.01-.01-.01-.02-.01"></path></g><path fill="#1c354a" d="m52.92 48.87-14.91-8.11.01-5.64 14.91 8.11z"></path><path fill="#29455d" d="M53.67 42.33c.41-.06.74.26.74.69l-.01 5.63c0 .44-.34.85-.74.9-.41.06-.74-.26-.74-.69l.01-5.63c0-.44.33-.84.74-.9z"></path><defs><path id="w" d="m52.93 43.23-14.91-8.11c0-.44.33-.84.74-.9l14.91 8.11c-.41.06-.74.46-.74.9z"></path></defs><clipPath id="x"><use overflow="visible" xlink:href="#w"></use></clipPath><g clip-path="url(#x)"><path fill="#1d364b" d="m52.93 43.23-14.91-8.11c0-.11.02-.22.06-.32l14.91 8.11c-.04.11-.06.21-.06.32"></path><path fill="#1d364b" d="m52.98 42.92-14.91-8.11c.02-.04.03-.08.06-.12l14.91 8.11c-.02.03-.04.08-.06.12"></path><path fill="#1e384d" d="m53.04 42.79-14.91-8.11c.02-.03.04-.07.06-.1L53.1 42.7l-.06.09"></path><path fill="#1f384d" d="m53.1 42.7-14.91-8.11a.27.27 0 0 1 .07-.08l14.91 8.11a.27.27 0 0 0-.07.08"></path><path fill="#20394f" d="M53.17 42.61 38.26 34.5c.02-.03.05-.05.08-.08l14.91 8.11c-.03.03-.06.05-.08.08"></path><path fill="#203a50" d="m53.24 42.54-14.91-8.11a.55.55 0 0 1 .09-.07l14.91 8.11c-.03.02-.06.04-.09.07"></path><path fill="#213b51" d="m53.33 42.46-14.91-8.11c.04-.03.08-.05.12-.07l14.91 8.11c-.04.02-.08.05-.12.07"></path><path fill="#223c52" d="m53.45 42.4-14.91-8.11c.07-.03.14-.05.22-.07l14.91 8.11c-.08.01-.15.03-.22.07"></path></g><defs><path id="y" d="m49.63 50-14.91-8.11c-.21-.11-.34-.34-.34-.63l14.91 8.11c0 .29.13.52.34.63z"></path></defs><clipPath id="z"><use overflow="visible" xlink:href="#y"></use></clipPath><g clip-path="url(#z)"><path fill="#1d364b" d="m49.63 50-14.91-8.11c-.21-.11-.34-.34-.34-.63l14.91 8.11c0 .29.13.52.34.63"></path></g><path fill="#20384e" d="m50.77 49.17-14.91-8.11.01-5.64 14.91 8.11z"></path><defs><path id="A" d="M31.48 42.47c.41-.06.74-.46.74-.9l14.91 8.11c0 .44-.33.84-.74.9-4.97-2.7-9.94-5.4-14.91-8.11z"></path></defs><clipPath id="B"><use overflow="visible" xlink:href="#A"></use></clipPath><g clip-path="url(#B)"><path fill="#284159" d="m46.14 50.57-14.91-8.11c.08.02.16.03.25.01.08-.01.15-.03.22-.07l14.91 8.11c-.07.03-.14.05-.22.07-.09.02-.17.01-.25-.01"></path><path fill="#274058" d="M46.61 50.52 31.7 42.41c.04-.02.08-.04.12-.07l14.91 8.11c-.04.03-.08.05-.12.07"></path><path fill="#263f56" d="m46.73 50.45-14.91-8.11c.03-.02.06-.05.09-.07l14.91 8.11c-.03.02-.06.05-.09.07"></path><path fill="#253e55" d="m46.82 50.38-14.91-8.11c.03-.02.05-.05.08-.08L46.9 50.3c-.03.03-.06.05-.08.08"></path><path fill="#243c53" d="m46.89 50.3-14.91-8.11c.02-.03.05-.05.07-.08l14.91 8.11c-.02.03-.04.06-.07.08"></path><path fill="#233b52" d="m46.96 50.22-14.91-8.11c.02-.03.04-.06.06-.1l14.91 8.11c-.02.03-.04.07-.06.1"></path><path fill="#223a51" d="m47.02 50.12-14.91-8.11.06-.12L47.08 50l-.06.12"></path><path fill="#21394f" d="m47.08 50-14.91-8.11c.04-.1.06-.21.06-.32l14.91 8.11c-.01.11-.03.22-.06.32"></path></g><defs><path id="C" d="M31.38 42.48c.03 0 .06 0 .1-.01 4.97 2.7 9.94 5.41 14.91 8.11-.03 0-.07.01-.1.01-4.97-2.7-9.94-5.41-14.91-8.11z"></path></defs><clipPath id="D"><use overflow="visible" xlink:href="#C"></use></clipPath><g clip-path="url(#D)"><path fill="#284159" d="m46.14 50.57-14.91-8.11c.08.02.16.03.25.01.08-.01.15-.03.22-.07l14.91 8.11c-.07.03-.14.05-.22.07-.09.02-.17.01-.25-.01"></path></g><defs><path id="E" d="m35.52 34.8 14.91 8.11c.21.11.35.34.35.63l-14.91-8.11c0-.29-.14-.52-.35-.63z"></path></defs><clipPath id="F"><use overflow="visible" xlink:href="#E"></use></clipPath><g clip-path="url(#F)"><path fill="#21394f" d="m50.78 43.53-14.91-8.11a.71.71 0 0 0-.35-.63l14.91 8.11c.21.12.35.35.35.63"></path></g><defs><path id="G" d="M31.38 42.48c.05.01.1.05.14.08.16.08.31.17.47.25.2.11.41.22.61.33 4.56 2.48 9.13 4.96 13.69 7.45-.11 0-.21-.03-.29-.07L31.09 42.4c.09.05.19.08.29.08z"></path></defs><clipPath id="H"><use overflow="visible" xlink:href="#G"></use></clipPath><g clip-path="url(#H)"><path fill="#263f56" d="M46 50.51 31.09 42.4c.01 0 .02.01.02.01l14.91 8.11c-.01 0-.01 0-.02-.01"></path><path fill="#274058" d="m46.02 50.53-14.91-8.11c.04.02.08.03.12.04l14.91 8.11c-.04-.01-.08-.03-.12-.04"></path><path fill="#284159" d="m46.14 50.57-14.91-8.11c.08.02.16.03.25.01.08-.01.15-.03.22-.07l14.91 8.11c-.07.03-.14.05-.22.07-.09.02-.17.01-.25-.01"></path></g><defs><path id="I" d="m35.52 34.8 14.91 8.11a.638.638 0 0 0-.39-.07l-14.91-8.11c.14-.02.28.01.39.07z"></path></defs><clipPath id="J"><use overflow="visible" xlink:href="#I"></use></clipPath><g clip-path="url(#J)"><path fill="#223c52" d="m50.04 42.84-14.91-8.11c.09-.01.17-.01.25.01l14.91 8.11a.692.692 0 0 0-.25-.01"></path><path fill="#213b51" d="m50.29 42.85-14.91-8.11c.04.01.08.03.12.04l14.91 8.11c-.04-.01-.08-.03-.12-.04"></path><path fill="#203a50" d="M50.41 42.9 35.5 34.79c.01 0 .02.01.02.01l14.91 8.11c0-.01-.01-.01-.02-.01"></path></g><path fill="#1c354a" d="m49.29 49.38-14.91-8.11.01-5.64 14.91 8.11z"></path><defs><path id="K" d="m49.3 43.74-14.91-8.11c0-.44.33-.84.74-.9l14.91 8.11c-.41.06-.74.46-.74.9z"></path></defs><clipPath id="L"><use overflow="visible" xlink:href="#K"></use></clipPath><g clip-path="url(#L)"><path fill="#1d364b" d="m49.3 43.74-14.91-8.11c0-.11.02-.22.06-.32l14.91 8.11c-.04.11-.06.21-.06.32"></path><path fill="#1d364b" d="m49.36 43.43-14.91-8.11c.02-.04.03-.08.06-.12l14.91 8.11c-.03.03-.05.07-.06.12"></path><path fill="#1e384d" d="M49.41 43.3 34.5 35.19c.02-.03.04-.07.06-.1l14.91 8.11a.88.88 0 0 1-.06.1"></path><path fill="#1f384d" d="M49.47 43.21 34.56 35.1a.27.27 0 0 1 .07-.08l14.91 8.11c-.02.02-.05.05-.07.08"></path><path fill="#20394f" d="m49.54 43.12-14.91-8.11c.02-.03.05-.05.08-.08l14.91 8.11c-.03.03-.06.05-.08.08"></path><path fill="#203a50" d="M49.61 43.05 34.7 34.93a.55.55 0 0 1 .09-.07l14.91 8.11c-.03.03-.06.05-.09.08"></path><path fill="#213b51" d="m49.7 42.97-14.91-8.11c.04-.03.08-.05.12-.07l14.91 8.11c-.04.02-.08.05-.12.07"></path><path fill="#223c52" d="M49.82 42.91 34.91 34.8c.07-.03.14-.05.22-.07l14.91 8.11c-.08.01-.15.03-.22.07"></path></g><path fill="#29455d" d="M50.04 42.84c.41-.06.74.26.74.69l-.01 5.63c0 .44-.34.85-.74.9-.41.06-.74-.26-.74-.69l.01-5.63c0-.44.33-.84.74-.9z"></path><defs><path id="M" d="M46 50.51 31.09 42.4c-.21-.11-.35-.34-.35-.63l14.91 8.11c0 .29.14.52.35.63z"></path></defs><clipPath id="N"><use overflow="visible" xlink:href="#M"></use></clipPath><g clip-path="url(#N)"><path fill="#1d364b" d="M46 50.51 31.09 42.4c-.21-.11-.35-.34-.35-.63l14.91 8.11c0 .29.14.52.35.63"></path></g><path fill="#20384e" d="m47.13 49.68-14.91-8.11.01-5.64 14.91 8.12z"></path><defs><path id="O" d="M32.23 35.93c0-.28-.14-.51-.34-.63l14.91 8.11c.21.11.34.34.34.63-4.47-2.43-10.43-5.67-14.91-8.11z"></path></defs><clipPath id="P"><use overflow="visible" xlink:href="#O"></use></clipPath><g clip-path="url(#P)"><path fill="#21394f" d="m47.14 44.05-14.91-8.11c0-.28-.14-.51-.34-.63l14.91 8.11c.21.11.34.34.34.63"></path></g><defs><path id="Q" d="m31.89 35.31 14.91 8.11a.656.656 0 0 0-.4-.07l-14.9-8.11c.14-.02.28.01.39.07z"></path></defs><clipPath id="R"><use overflow="visible" xlink:href="#Q"></use></clipPath><g clip-path="url(#R)"><path fill="#223c52" d="M46.41 43.35 31.5 35.24c.09-.01.18-.01.26.01l14.91 8.11a.758.758 0 0 0-.26-.01"></path><path fill="#213b51" d="m46.66 43.36-14.91-8.11c.04.01.08.02.12.04l14.91 8.11c-.04-.01-.08-.03-.12-.04"></path><path fill="#203a50" d="M46.78 43.41 31.87 35.3c.01 0 .02.01.02.01l14.91 8.11c-.01-.01-.01-.01-.02-.01"></path></g><path fill="#1c354a" d="m45.65 49.89-14.91-8.11.01-5.64 14.91 8.11z"></path><path fill="#29455d" d="M46.41 43.35c.41-.06.74.26.74.69l-.01 5.63c0 .44-.33.84-.74.9-.41.06-.74-.26-.74-.69l.01-5.63c-.01-.43.33-.84.74-.9z"></path><defs><path id="S" d="m45.66 44.25-14.91-8.11c0-.44.34-.85.74-.9l14.91 8.11c-.4.06-.74.47-.74.9z"></path></defs><clipPath id="T"><use overflow="visible" xlink:href="#S"></use></clipPath><g clip-path="url(#T)"><path fill="#1d364b" d="m45.66 44.25-14.91-8.11c0-.11.02-.21.06-.31l14.91 8.11c-.04.1-.06.21-.06.31m.06-.31-14.91-8.11c.02-.04.03-.09.06-.13l14.91 8.11c-.02.05-.04.09-.06.13"></path><path fill="#1e384d" d="m45.78 43.82-14.91-8.11c.02-.03.04-.07.06-.1l14.91 8.11c-.02.03-.04.06-.06.1"></path><path fill="#1f384d" d="m45.84 43.72-14.91-8.11a.55.55 0 0 1 .07-.09l14.91 8.11a.55.55 0 0 0-.07.09"></path><path fill="#20394f" d="M45.91 43.63 31 35.52c.02-.03.05-.05.08-.08l14.91 8.11c-.04.03-.06.06-.08.08"></path><path fill="#203a50" d="m45.98 43.56-14.91-8.11a.55.55 0 0 1 .09-.07l14.91 8.11a.55.55 0 0 0-.09.07"></path><path fill="#213b51" d="m46.07 43.48-14.91-8.11c.04-.03.08-.05.12-.07l14.91 8.11c-.04.02-.08.05-.12.07"></path><path fill="#223c52" d="M46.19 43.42 31.28 35.3a.83.83 0 0 1 .21-.06l14.91 8.11c-.07.01-.14.03-.21.07"></path></g><path fill="#886535" d="m37.82 58.17-14.91-8.11.01-3.98 14.91 8.11z"></path><path fill="#ad8047" d="m37.83 54.19-14.91-8.11 3.17-.45L41 53.74z"></path><defs><path id="U" d="M22.46 41.71c.27.15.59.21.93.16l14.91 8.11c-.34.05-.66-.01-.93-.16-4.47-2.43-10.43-5.68-14.91-8.11z"></path></defs><clipPath id="V"><use overflow="visible" xlink:href="#U"></use></clipPath><g clip-path="url(#V)"><path fill="#263f56" d="m37.37 49.82-14.91-8.11c.02.01.04.02.05.03l14.91 8.11a.219.219 0 0 0-.05-.03"></path><path fill="#274058" d="m37.43 49.85-14.91-8.11c.09.04.18.08.27.1l14.91 8.11c-.09-.02-.19-.06-.27-.1"></path><path fill="#284159" d="m37.7 49.95-14.91-8.11c.19.05.39.06.6.03l14.91 8.11c-.21.03-.41.02-.6-.03"></path></g><defs><path id="W" d="M25.13 39.75c0-.67-.32-1.21-.8-1.47l14.91 8.11c.48.26.81.8.8 1.47 0 1.03-.78 1.98-1.74 2.12l-14.91-8.11c.96-.13 1.74-1.08 1.74-2.12z"></path></defs><clipPath id="X"><use overflow="visible" xlink:href="#W"></use></clipPath><g clip-path="url(#X)"><path fill="#284159" d="m38.3 49.98-14.91-8.11c.18-.02.35-.08.5-.15l14.91 8.11c-.16.08-.32.13-.5.15"></path><path fill="#274058" d="m38.8 49.83-14.91-8.11c.1-.05.19-.1.28-.16l14.91 8.11c-.08.06-.18.11-.28.16"></path><path fill="#263f56" d="m39.09 49.67-14.91-8.11c.07-.05.14-.11.21-.17L39.3 49.5c-.07.06-.14.12-.21.17"></path><path fill="#253e55" d="m39.3 49.5-14.91-8.11.18-.18 14.91 8.11-.18.18"></path><path fill="#243c53" d="m39.47 49.32-14.91-8.11c.06-.06.11-.13.16-.2l14.91 8.11c-.05.07-.1.14-.16.2"></path><path fill="#233b52" d="m39.63 49.12-14.91-8.11c.05-.07.1-.15.14-.23l14.91 8.11c-.04.08-.09.16-.14.23"></path><path fill="#223a51" d="m39.77 48.89-14.91-8.11c.05-.09.09-.19.13-.29L39.9 48.6c-.03.1-.08.2-.13.29"></path><path fill="#21394f" d="M39.91 48.6 25 40.49c.09-.23.13-.48.13-.73 0-.67-.32-1.21-.8-1.47l14.91 8.11c.48.26.81.8.8 1.47 0 .25-.05.5-.13.73"></path></g><defs><path id="Y" d="m24.32 38.28 14.91 8.11c-.27-.15-.59-.21-.93-.16l-14.9-8.11c.34-.04.66.02.92.16z"></path></defs><clipPath id="Z"><use overflow="visible" xlink:href="#Y"></use></clipPath><g clip-path="url(#Z)"><path fill="#669288" d="M38.31 46.24 23.4 38.12c.21-.03.41-.02.6.03l14.91 8.11c-.19-.04-.39-.05-.6-.02"></path><path fill="#648f85" d="M38.91 46.27 24 38.15c.1.02.19.06.27.1l14.91 8.11c-.09-.04-.18-.07-.27-.09"></path><path fill="#618c82" d="m39.18 46.37-14.91-8.11c.02.01.04.02.05.03l14.91 8.11c-.01-.01-.03-.02-.05-.03"></path></g><defs><path id="aa" d="m37.37 49.82-14.91-8.11c-.49-.26-.81-.8-.81-1.47 0-1.04.78-1.98 1.74-2.12l14.91 8.11c-.96.13-1.74 1.08-1.74 2.12.01.67.33 1.21.81 1.47z"></path></defs><clipPath id="ab"><use overflow="visible" xlink:href="#aa"></use></clipPath><g clip-path="url(#ab)"><path fill="#557d74" d="m37.37 49.82-14.91-8.11c-.49-.26-.81-.8-.81-1.47 0-.26.05-.51.13-.74l14.91 8.11c-.09.23-.13.48-.13.74.01.67.33 1.21.81 1.47"></path><path fill="#578077" d="M36.7 47.61 21.79 39.5c.04-.1.08-.2.13-.29l14.91 8.11c-.05.1-.09.19-.13.29"></path><path fill="#5a827a" d="m36.83 47.32-14.91-8.11c.04-.08.09-.16.14-.23l14.91 8.11c-.05.08-.09.15-.14.23"></path><path fill="#5c857d" d="m36.97 47.09-14.91-8.11c.05-.07.1-.14.16-.2l14.91 8.11a2.8 2.8 0 0 0-.16.2"></path><path fill="#5f8980" d="m37.13 46.9-14.91-8.11c.06-.06.11-.12.18-.18l14.91 8.11c-.07.05-.12.11-.18.18"></path><path fill="#618c82" d="M37.31 46.72 22.4 38.61c.07-.06.14-.12.21-.17l14.91 8.11c-.08.05-.15.11-.21.17"></path><path fill="#648f85" d="m37.52 46.55-14.91-8.11c.09-.06.18-.12.28-.16l14.91 8.11c-.1.04-.19.1-.28.16"></path><path fill="#669288" d="m37.8 46.39-14.91-8.11c.16-.08.33-.13.51-.15l14.91 8.11c-.18.02-.35.07-.51.15"></path></g><path fill="#80b5a7" d="M38.31 46.24c.96-.13 1.73.59 1.73 1.63 0 1.03-.78 1.98-1.74 2.12-.96.13-1.73-.6-1.73-1.63 0-1.05.78-1.99 1.74-2.12z"></path><defs><path id="ac" d="M14.81 42.79c.27.15.59.21.93.16l14.91 8.11c-.34.05-.66-.01-.93-.16-4.47-2.44-10.43-5.68-14.91-8.11z"></path></defs><clipPath id="ad"><use overflow="visible" xlink:href="#ac"></use></clipPath><g clip-path="url(#ad)"><path fill="#263f56" d="m29.72 50.9-14.91-8.11c.02.01.04.02.05.03l14.91 8.11a.219.219 0 0 0-.05-.03"></path><path fill="#274058" d="m29.78 50.92-14.91-8.11c.09.04.18.08.27.1l14.91 8.11a.88.88 0 0 1-.27-.1"></path><path fill="#284159" d="m30.05 51.03-14.91-8.11c.19.05.39.06.6.03l14.91 8.11c-.21.03-.41.01-.6-.03"></path></g><defs><path id="ae" d="M17.48 40.83c0-.67-.32-1.21-.8-1.47l14.91 8.11c.48.26.81.8.8 1.47 0 1.03-.78 1.98-1.74 2.12l-14.91-8.11c.96-.14 1.74-1.09 1.74-2.12z"></path></defs><clipPath id="af"><use overflow="visible" xlink:href="#ae"></use></clipPath><g clip-path="url(#af)"><path fill="#284159" d="m30.65 51.06-14.91-8.11c.18-.02.35-.08.51-.15l14.91 8.11c-.17.07-.34.12-.51.15"></path><path fill="#274058" d="M31.15 50.91 16.24 42.8c.1-.05.19-.1.28-.16l14.91 8.11c-.08.05-.18.11-.28.16"></path><path fill="#263f56" d="m31.44 50.74-14.91-8.11c.07-.05.14-.11.21-.17l14.91 8.11c-.07.07-.14.12-.21.17"></path><path fill="#253e55" d="m31.65 50.58-14.91-8.11.18-.18 14.91 8.11-.18.18"></path><path fill="#243c53" d="m31.82 50.4-14.91-8.11c.06-.06.11-.13.16-.2l14.91 8.11c-.05.07-.1.13-.16.2"></path><path fill="#233b52" d="m31.98 50.2-14.91-8.11c.05-.07.1-.15.14-.23l14.91 8.11c-.04.08-.09.15-.14.23"></path><path fill="#223a51" d="m32.12 49.97-14.91-8.11c.05-.09.09-.19.13-.29l14.91 8.11c-.03.1-.08.19-.13.29"></path><path fill="#21394f" d="m32.26 49.67-14.91-8.11c.09-.23.13-.48.13-.73 0-.67-.32-1.21-.8-1.47l14.91 8.11c.48.26.81.8.8 1.47 0 .25-.05.5-.13.73"></path></g><defs><path id="ag" d="m16.67 39.36 14.91 8.11c-.27-.15-.59-.21-.93-.16l-14.9-8.11c.34-.05.66.01.92.16z"></path></defs><clipPath id="ah"><use overflow="visible" xlink:href="#ag"></use></clipPath><g clip-path="url(#ah)"><path fill="#9b2f47" d="M30.66 47.31 15.75 39.2c.21-.03.41-.02.6.03l14.91 8.11c-.19-.05-.39-.06-.6-.03"></path><path fill="#972e45" d="m31.26 47.34-14.91-8.11c.1.02.19.06.27.1l14.91 8.11c-.09-.04-.18-.07-.27-.1"></path><path fill="#942c44" d="m31.53 47.44-14.91-8.11c.02.01.04.02.05.03l14.91 8.11c-.01-.01-.03-.02-.05-.03"></path></g><defs><path id="ai" d="m29.72 50.9-14.91-8.11c-.49-.26-.81-.8-.81-1.47 0-1.04.78-1.98 1.74-2.12l14.91 8.11c-.96.13-1.74 1.08-1.74 2.12.01.66.33 1.2.81 1.47z"></path></defs><clipPath id="aj"><use overflow="visible" xlink:href="#ai"></use></clipPath><g clip-path="url(#aj)"><path fill="#83243a" d="m29.72 50.9-14.91-8.11c-.49-.26-.81-.8-.81-1.47 0-.26.05-.51.13-.74l14.91 8.11c-.09.23-.13.48-.13.74.01.66.33 1.2.81 1.47"></path><path fill="#86263c" d="m29.05 48.69-14.91-8.11c.04-.1.08-.2.13-.29l14.91 8.11c-.05.09-.09.19-.13.29"></path><path fill="#8a283e" d="m29.18 48.4-14.91-8.11c.04-.08.09-.16.14-.23l14.91 8.11c-.05.07-.1.15-.14.23"></path><path fill="#8d2940" d="m29.32 48.17-14.91-8.11c.05-.07.1-.14.16-.2l14.91 8.11c-.06.06-.11.13-.16.2"></path><path fill="#902b42" d="m29.48 47.97-14.91-8.11c.06-.06.11-.12.18-.18l14.91 8.11c-.07.06-.13.12-.18.18"></path><path fill="#942c44" d="m29.66 47.79-14.91-8.11c.07-.06.14-.12.21-.17l14.91 8.11c-.08.06-.15.11-.21.17"></path><path fill="#972e45" d="m29.87 47.63-14.91-8.11c.09-.06.18-.12.28-.16l14.91 8.11c-.1.04-.19.09-.28.16"></path><path fill="#9b2f47" d="m30.15 47.46-14.91-8.11c.16-.08.33-.13.51-.15l14.91 8.11c-.18.03-.35.08-.51.15"></path></g><path fill="#c03f5a" d="M30.66 47.31c.96-.13 1.73.59 1.73 1.63 0 1.03-.78 1.98-1.74 2.12-.96.13-1.73-.6-1.73-1.63 0-1.04.78-1.99 1.74-2.12z"></path><defs><path id="ak" d="M7.16 43.86c.27.15.59.21.93.16 4.39 2.39 8.78 4.78 13.17 7.16l1.74.95c-.34.05-.66-.01-.93-.16-4.47-2.43-10.43-5.67-14.91-8.11z"></path></defs><clipPath id="al"><use overflow="visible" xlink:href="#ak"></use></clipPath><g clip-path="url(#al)"><path fill="#263f56" d="M22.07 51.97 7.16 43.86c.02.01.04.02.05.03L22.13 52l-.06-.03"></path><path fill="#274058" d="M22.13 52 7.22 43.89c.09.04.18.08.27.1L22.4 52.1c-.09-.02-.19-.06-.27-.1"></path><path fill="#284159" d="M22.4 52.1 7.49 43.99c.19.05.39.06.6.03L23 52.13c-.21.03-.41.02-.6-.03"></path></g><defs><path id="am" d="M9.83 41.9c0-.67-.32-1.21-.8-1.47l14.91 8.11c.48.26.81.8.8 1.47 0 1.03-.78 1.98-1.74 2.12L8.09 44.02c.96-.13 1.74-1.08 1.74-2.12z"></path></defs><clipPath id="an"><use overflow="visible" xlink:href="#am"></use></clipPath><g clip-path="url(#an)"><path fill="#284159" d="M23 52.13 8.09 44.02c.18-.02.35-.08.5-.15l14.91 8.11c-.16.08-.33.13-.5.15"></path><path fill="#274058" d="M23.5 51.98 8.59 43.87c.1-.05.19-.1.28-.16l14.91 8.11c-.08.06-.18.11-.28.16"></path><path fill="#263f56" d="M23.79 51.82 8.88 43.71c.07-.05.14-.11.21-.17L24 51.65c-.07.06-.14.12-.21.17"></path><path fill="#253e55" d="M24 51.65 9.09 43.54l.18-.18 14.91 8.11-.18.18"></path><path fill="#243c53" d="M24.17 51.47 9.26 43.36c.06-.06.11-.13.16-.2l14.91 8.11c-.05.07-.1.14-.16.2"></path><path fill="#233b52" d="M24.33 51.27 9.42 43.16c.05-.07.1-.15.14-.23l14.91 8.11c-.04.08-.09.16-.14.23"></path><path fill="#223a51" d="M24.47 51.04 9.56 42.93c.05-.09.09-.19.13-.29l14.91 8.11c-.03.1-.08.2-.13.29"></path><path fill="#21394f" d="M24.6 50.75 9.69 42.64c.09-.23.13-.48.13-.73 0-.67-.32-1.21-.8-1.47l14.91 8.11c.48.26.81.8.8 1.47.01.25-.04.5-.13.73"></path></g><defs><path id="ao" d="m9.02 40.43 14.91 8.11c-.27-.15-.59-.21-.93-.16L8.1 40.27c.34-.04.66.02.92.16z"></path></defs><clipPath id="ap"><use overflow="visible" xlink:href="#ao"></use></clipPath><g clip-path="url(#ap)"><path fill="#a4a5a7" d="M23.01 48.39 8.1 40.27c.21-.03.41-.02.6.03l14.91 8.11c-.19-.04-.39-.05-.6-.02"></path><path fill="#a0a2a4" d="M23.61 48.42 8.7 40.31c.1.02.19.06.27.1l14.91 8.11a.987.987 0 0 0-.27-.1"></path><path fill="#9d9ea0" d="M23.88 48.52 8.97 40.41c.02.01.04.02.05.03l14.91 8.11c-.01-.01-.03-.02-.05-.03"></path></g><defs><path id="aq" d="M22.07 51.97 7.16 43.86c-.49-.26-.81-.8-.81-1.47 0-1.04.78-1.98 1.74-2.12L23 48.38c-.96.13-1.74 1.08-1.74 2.12.01.67.33 1.21.81 1.47z"></path></defs><clipPath id="ar"><use overflow="visible" xlink:href="#aq"></use></clipPath><g clip-path="url(#ar)"><path fill="#8a8c8e" d="M22.07 51.97 7.16 43.86c-.49-.26-.81-.8-.81-1.47 0-.26.05-.51.13-.74l14.91 8.11c-.09.23-.13.48-.13.74.01.67.33 1.21.81 1.47"></path><path fill="#8e8f92" d="M21.4 49.76 6.49 41.65c.04-.1.08-.2.13-.29l14.91 8.11c-.05.1-.09.19-.13.29"></path><path fill="#929395" d="M21.53 49.47 6.62 41.36c.04-.08.09-.16.14-.23l14.91 8.11c-.05.08-.1.15-.14.23"></path><path fill="#959799" d="M21.67 49.24 6.76 41.13c.05-.07.1-.14.16-.2l14.91 8.11a2.8 2.8 0 0 0-.16.2"></path><path fill="#999a9c" d="M21.83 49.05 6.92 40.93c.06-.06.11-.12.18-.18l14.91 8.11c-.07.06-.13.12-.18.19"></path><path fill="#9d9ea0" d="M22.01 48.87 7.1 40.76c.07-.06.14-.12.21-.17l14.91 8.11c-.08.05-.15.11-.21.17"></path><path fill="#a0a2a4" d="M22.22 48.7 7.31 40.59c.09-.06.18-.12.28-.16l14.91 8.11c-.1.04-.19.1-.28.16"></path><path fill="#a4a5a7" d="M22.5 48.54 7.59 40.43c.16-.08.33-.13.51-.15l14.91 8.11c-.18.02-.35.07-.51.15"></path></g><path fill="#cdcecf" d="M23.01 48.39c.96-.13 1.73.59 1.73 1.63 0 1.03-.78 1.98-1.74 2.12-.96.13-1.73-.6-1.73-1.63 0-1.05.78-1.99 1.74-2.12z"></path><defs><path id="as" d="M17.49 56.81 2.58 48.7c-.4-.22-.67-.66-.66-1.21l14.91 8.11c0 .54.26.99.66 1.21z"></path></defs><clipPath id="at"><use overflow="visible" xlink:href="#as"></use></clipPath><g clip-path="url(#at)"><path fill="#21394f" d="M17.49 56.81 2.58 48.7c-.4-.22-.67-.66-.66-1.21l14.91 8.11c0 .54.26.99.66 1.21"></path></g><path fill="#314d68" d="M60.59 38.95c.79-.11 1.43.49 1.43 1.35L62 49.24c0 .86-.64 1.64-1.44 1.75L41 53.74l-3.18.45-19.56 2.75c-.8.11-1.44-.49-1.44-1.35l.02-8.94c0-.86.64-1.65 1.44-1.76l42.31-5.94zM30.65 51.06c.96-.13 1.74-1.09 1.74-2.12 0-1.04-.78-1.76-1.73-1.63-.96.13-1.74 1.08-1.74 2.12 0 1.03.77 1.76 1.73 1.63m7.65-1.08c.96-.13 1.74-1.09 1.74-2.12 0-1.04-.78-1.76-1.73-1.63-.96.13-1.74 1.08-1.74 2.12 0 1.03.77 1.77 1.73 1.63M23 52.13c.96-.13 1.74-1.09 1.74-2.12 0-1.04-.78-1.76-1.73-1.63-.96.13-1.74 1.08-1.74 2.12-.01 1.03.77 1.77 1.73 1.63m27.77-2.96.01-5.63c0-.44-.33-.75-.74-.69-.41.06-.74.46-.74.9l-.01 5.63c0 .44.33.75.74.69.4-.05.74-.46.74-.9m3.63-.51.01-5.63c0-.44-.33-.75-.74-.69-.41.06-.74.46-.74.9l-.01 5.63c0 .44.33.75.74.69.4-.05.74-.46.74-.9m-7.27 1.02.01-5.63c0-.44-.33-.75-.74-.69-.41.06-.74.46-.74.9l-.01 5.63c0 .44.33.75.74.69.41-.05.74-.46.74-.9m10.9-1.53.01-5.63c0-.44-.33-.75-.74-.69-.41.06-.74.46-.74.9l-.01 5.63c0 .44.33.75.74.69.4-.05.74-.46.74-.9"></path><path fill="#29455d" d="M57.3 41.82c.41-.06.74.26.74.69l-.01 5.63c0 .44-.34.85-.74.9-.41.06-.74-.26-.74-.69l.01-5.63c0-.44.33-.84.74-.9z"></path><path fill="#cd9755" d="M41 53.74v3.98l-3.18.45.01-3.98z"></path><path fill="#2a445c" d="M18.29 44.9 3.38 36.79l42.3-5.95 14.91 8.11z"></path><path fill="#20384e" d="M16.83 55.59 1.92 47.48l.02-8.93 14.91 8.11z"></path><defs><path id="au" d="M16.85 46.66 1.94 38.55c0-.86.64-1.65 1.44-1.76l14.91 8.11c-.8.11-1.44.89-1.44 1.76z"></path></defs><clipPath id="av"><use overflow="visible" xlink:href="#au"></use></clipPath><g clip-path="url(#av)"><path fill="#21394f" d="M16.85 46.66 1.94 38.55c0-.21.04-.42.11-.62l14.91 8.11c-.07.2-.11.4-.11.62"></path><path fill="#223a51" d="M16.96 46.04 2.05 37.93c.03-.08.07-.16.11-.24l14.91 8.11c-.04.08-.08.16-.11.24"></path><path fill="#233b52" d="M17.07 45.8 2.16 37.69c.04-.07.07-.13.12-.19l14.91 8.11a.76.76 0 0 0-.12.19"></path><path fill="#243c53" d="M17.18 45.61 2.27 37.5c.04-.06.08-.11.13-.16l14.91 8.11c-.04.05-.09.1-.13.16"></path><path fill="#253e55" d="M17.31 45.45 2.4 37.34c.05-.05.09-.1.15-.15l14.91 8.11c-.05.05-.1.09-.15.15"></path><path fill="#263f56" d="M17.46 45.3 2.55 37.19c.06-.05.11-.1.17-.14l14.91 8.11c-.06.04-.12.09-.17.14"></path><path fill="#274058" d="M17.63 45.16 2.72 37.05c.07-.05.15-.1.23-.13l14.91 8.11c-.07.04-.15.08-.23.13"></path><path fill="#284159" d="M17.87 45.03 2.96 36.92c.13-.06.28-.11.42-.13l14.91 8.11c-.15.02-.29.06-.42.13"></path></g><defs><path id="aw" d="M42.4 25.53c.41-.06.74-.46.74-.9l14.91 8.11c0 .44-.34.85-.74.9-4.97-2.7-9.94-5.41-14.91-8.11z"></path></defs><clipPath id="ax"><use overflow="visible" xlink:href="#aw"></use></clipPath><g clip-path="url(#ax)"><path fill="#284159" d="m57.06 33.63-14.91-8.11c.08.02.16.03.25.01.07-.01.15-.03.21-.06l14.91 8.11a.83.83 0 0 1-.21.06c-.09.01-.17.01-.25-.01"></path><path fill="#274058" d="m57.53 33.58-14.91-8.11c.04-.02.08-.04.12-.07l14.91 8.11c-.04.02-.08.05-.12.07"></path><path fill="#263f56" d="M57.65 33.51 42.74 25.4c.03-.02.06-.05.09-.07l14.91 8.11c-.03.02-.06.05-.09.07"></path><path fill="#253e55" d="m57.74 33.44-14.91-8.11c.03-.02.05-.05.08-.08l14.91 8.11c-.03.03-.06.05-.08.08"></path><path fill="#243c53" d="M57.81 33.36 42.9 25.25c.02-.03.05-.06.07-.09l14.91 8.11c-.02.03-.04.06-.07.09"></path><path fill="#233b52" d="m57.88 33.27-14.91-8.11c.02-.03.04-.06.06-.1l14.91 8.11c-.02.04-.04.07-.06.1"></path><path fill="#223a51" d="m57.94 33.17-14.91-8.11c.02-.04.04-.08.06-.13L58 33.05l-.06.12"></path><path fill="#21394f" d="m58 33.05-14.91-8.11c.04-.1.06-.2.06-.31l14.91 8.11c-.01.1-.03.21-.06.31"></path></g><defs><path id="ay" d="M42.01 25.46c.11.06.25.09.39.07 4.97 2.7 9.94 5.41 14.91 8.11a.638.638 0 0 1-.39-.07c-4.47-2.43-10.44-5.68-14.91-8.11z"></path></defs><clipPath id="az"><use overflow="visible" xlink:href="#ay"></use></clipPath><g clip-path="url(#az)"><path fill="#263f56" d="m56.92 33.57-14.91-8.11c.01 0 .02.01.02.01l14.91 8.11s-.01 0-.02-.01"></path><path fill="#274058" d="m56.94 33.58-14.91-8.11c.04.02.08.03.12.04l14.91 8.11c-.04 0-.08-.02-.12-.04"></path><path fill="#284159" d="m57.06 33.63-14.91-8.11c.08.02.16.03.25.01.07-.01.15-.03.21-.06l14.91 8.11a.83.83 0 0 1-.21.06c-.09.01-.17.01-.25-.01"></path></g><defs><path id="aA" d="m56.92 33.57-14.91-8.11c-.21-.11-.35-.34-.35-.63l14.91 8.11c0 .29.14.52.35.63z"></path></defs><clipPath id="aB"><use overflow="visible" xlink:href="#aA"></use></clipPath><g clip-path="url(#aB)"><path fill="#1d364b" d="m56.92 33.57-14.91-8.11c-.21-.11-.35-.34-.35-.63l14.91 8.11c0 .29.14.52.35.63"></path></g><defs><path id="aC" d="m46.47 15.56 14.91 8.11c-.22-.12-.48-.17-.76-.13l-14.91-8.11c.28-.04.54.01.76.13z"></path></defs><clipPath id="aD"><use overflow="visible" xlink:href="#aC"></use></clipPath><g clip-path="url(#aD)"><path fill="#284159" d="m60.62 23.54-14.91-8.11c.17-.02.34-.01.49.03l14.91 8.11c-.15-.05-.32-.06-.49-.03"></path><path fill="#274058" d="M61.11 23.56 46.2 15.45c.08.02.15.05.23.08l14.91 8.11c-.07-.03-.15-.06-.23-.08"></path><path fill="#263f56" d="m61.34 23.64-14.91-8.11c.01.01.03.01.04.02l14.91 8.11c-.01 0-.03-.01-.04-.02"></path></g><path fill="#20384e" d="m58.05 32.74-14.91-8.11.02-5.64 14.91 8.11z"></path><defs><path id="aE" d="M38.77 26.04c.41-.06.74-.46.74-.9l14.91 8.11c0 .44-.34.85-.74.9-4.97-2.7-9.94-5.41-14.91-8.11z"></path></defs><clipPath id="aF"><use overflow="visible" xlink:href="#aE"></use></clipPath><g clip-path="url(#aF)"><path fill="#284159" d="m53.43 34.14-14.91-8.11c.08.02.17.03.26.01.07-.01.15-.03.21-.06l14.91 8.11a.738.738 0 0 1-.47.05"></path><path fill="#274058" d="m53.9 34.09-14.91-8.11c.04-.02.08-.04.12-.07l14.91 8.11c-.04.02-.08.05-.12.07"></path><path fill="#263f56" d="m54.02 34.02-14.91-8.11c.03-.02.06-.05.09-.07l14.91 8.11c-.03.02-.06.05-.09.07"></path><path fill="#253e55" d="M54.11 33.95 39.2 25.83c.03-.02.05-.05.08-.08l14.91 8.11c-.03.04-.05.06-.08.09"></path><path fill="#243c53" d="m54.18 33.87-14.91-8.11c.02-.03.05-.06.07-.09l14.91 8.11c-.02.03-.04.06-.07.09"></path><path fill="#233b52" d="m54.25 33.78-14.91-8.11c.02-.03.04-.06.06-.1l14.91 8.11a.88.88 0 0 1-.06.1"></path><path fill="#223a51" d="M54.31 33.68 39.4 25.57c.02-.04.04-.08.06-.13l14.91 8.11c-.02.05-.04.09-.06.13"></path><path fill="#21394f" d="m54.37 33.56-14.91-8.11c.04-.1.06-.2.06-.31l14.91 8.11c0 .1-.02.21-.06.31"></path></g><defs><path id="aG" d="M43.16 18.99c0-.29-.14-.51-.34-.63l14.91 8.11c.21.11.34.34.34.63-4.48-2.43-10.44-5.67-14.91-8.11z"></path></defs><clipPath id="aH"><use overflow="visible" xlink:href="#aG"></use></clipPath><g clip-path="url(#aH)"><path fill="#21394f" d="m58.07 27.1-14.91-8.11c0-.29-.14-.51-.34-.63l14.91 8.11c.2.12.34.35.34.63"></path></g><defs><path id="aI" d="M38.38 25.97c.11.06.25.09.4.07 4.97 2.7 9.94 5.41 14.91 8.11a.67.67 0 0 1-.4-.07c-4.47-2.43-10.44-5.67-14.91-8.11z"></path></defs><clipPath id="aJ"><use overflow="visible" xlink:href="#aI"></use></clipPath><g clip-path="url(#aJ)"><path fill="#263f56" d="m53.29 34.08-14.91-8.11c.01 0 .01.01.02.01l14.91 8.11c-.01 0-.01 0-.02-.01"></path><path fill="#274058" d="M53.31 34.09 38.4 25.98c.04.02.08.03.12.04l14.91 8.11c-.04 0-.08-.02-.12-.04"></path><path fill="#284159" d="m53.43 34.14-14.91-8.11c.08.02.17.03.26.01.07-.01.15-.03.21-.06l14.91 8.11a.738.738 0 0 1-.47.05"></path></g><defs><path id="aK" d="m42.81 18.37 14.91 8.11a.656.656 0 0 0-.4-.07l-14.9-8.11c.14-.02.28 0 .39.07z"></path></defs><clipPath id="aL"><use overflow="visible" xlink:href="#aK"></use></clipPath><g clip-path="url(#aL)"><path fill="#223c52" d="M57.33 26.41 42.42 18.3c.09-.01.18-.01.26.01l14.91 8.11a.758.758 0 0 0-.26-.01"></path><path fill="#213b51" d="m57.58 26.42-14.91-8.11c.04.01.08.03.12.04l14.91 8.11c-.04-.01-.08-.03-.12-.04"></path><path fill="#203a50" d="m57.7 26.46-14.91-8.11c.01 0 .02.01.02.01l14.91 8.11s-.01 0-.02-.01"></path></g><path fill="#1c354a" d="m56.57 32.95-14.91-8.12.02-5.63 14.91 8.11z"></path><defs><path id="aM" d="M56.59 27.31 41.68 19.2c0-.45.34-.85.74-.9l14.91 8.11c-.41.06-.74.46-.74.9z"></path></defs><clipPath id="aN"><use overflow="visible" xlink:href="#aM"></use></clipPath><g clip-path="url(#aN)"><path fill="#1d364b" d="M56.59 27.31 41.68 19.2c0-.11.02-.22.06-.32L56.64 27c-.03.1-.05.2-.05.31"></path><path fill="#1d364b" d="m56.64 27-14.91-8.11c.02-.04.03-.08.06-.12l14.91 8.11c-.02.03-.04.07-.06.12"></path><path fill="#1e384d" d="m56.7 26.87-14.91-8.11c.02-.03.04-.07.06-.1l14.91 8.11c-.02.04-.04.07-.06.1"></path><path fill="#1f384d" d="m56.76 26.77-14.91-8.11a.27.27 0 0 1 .07-.08l14.91 8.11c-.03.03-.05.06-.07.08"></path><path fill="#20394f" d="m56.82 26.69-14.91-8.11c.02-.03.05-.05.08-.08l14.91 8.11-.08.08"></path><path fill="#203a50" d="M56.9 26.61 41.99 18.5a.55.55 0 0 1 .09-.07l14.91 8.11c-.03.02-.06.05-.09.07"></path><path fill="#213b51" d="m56.99 26.54-14.91-8.11c.04-.03.08-.05.12-.07l14.91 8.11c-.04.02-.08.05-.12.07"></path><path fill="#223c52" d="M57.11 26.47 42.2 18.36c.07-.03.14-.05.22-.07l14.91 8.11c-.08.02-.15.04-.22.07"></path></g><path fill="#29455d" d="M57.33 26.41c.41-.06.74.25.74.69l-.01 5.63c0 .44-.34.85-.74.9-.41.06-.74-.26-.74-.69l.01-5.63c0-.44.33-.84.74-.9z"></path><defs><path id="aO" d="m53.29 34.08-14.91-8.11c-.21-.11-.34-.34-.34-.63l14.91 8.11c0 .29.13.52.34.63z"></path></defs><clipPath id="aP"><use overflow="visible" xlink:href="#aO"></use></clipPath><g clip-path="url(#aP)"><path fill="#1d364b" d="m53.29 34.08-14.91-8.11c-.21-.11-.34-.34-.34-.63l14.91 8.11c0 .29.13.52.34.63"></path></g><path fill="#20384e" d="m54.43 33.25-14.91-8.11.01-5.64 14.91 8.11z"></path><defs><path id="aQ" d="M35.15 26.55c.41-.06.74-.46.74-.9l14.91 8.11c0 .44-.34.85-.74.9-4.97-2.7-9.94-5.41-14.91-8.11z"></path></defs><clipPath id="aR"><use overflow="visible" xlink:href="#aQ"></use></clipPath><g clip-path="url(#aR)"><path fill="#284159" d="m49.8 34.65-14.91-8.11c.08.02.17.03.26.01.07-.01.15-.03.21-.06l14.91 8.11a.748.748 0 0 1-.47.05"></path><path fill="#274058" d="m50.27 34.6-14.91-8.11c.04-.02.08-.04.12-.07l14.91 8.11c-.04.02-.08.05-.12.07"></path><path fill="#263f56" d="m50.39 34.53-14.91-8.11c.03-.02.06-.05.09-.07l14.91 8.11c-.03.02-.06.05-.09.07"></path><path fill="#253e55" d="m50.48 34.46-14.91-8.11c.03-.02.05-.05.08-.08l14.91 8.11-.08.08"></path><path fill="#243c53" d="m50.56 34.38-14.91-8.11c.02-.03.05-.06.07-.09l14.91 8.11a.55.55 0 0 0-.07.09"></path><path fill="#233b52" d="m50.62 34.29-14.91-8.11c.02-.03.04-.06.06-.1l14.91 8.11c-.01.04-.03.07-.06.1"></path><path fill="#223a51" d="m50.68 34.19-14.91-8.11c.02-.04.04-.08.06-.13l14.91 8.11a.31.31 0 0 1-.06.13"></path><path fill="#21394f" d="m50.74 34.07-14.91-8.11c.04-.1.06-.2.06-.31l14.91 8.11c0 .1-.02.21-.06.31"></path></g><defs><path id="aS" d="M39.53 19.5c0-.29-.14-.51-.34-.63l14.91 8.11c.21.11.34.34.34.63-4.48-2.43-10.44-5.67-14.91-8.11z"></path></defs><clipPath id="aT"><use overflow="visible" xlink:href="#aS"></use></clipPath><g clip-path="url(#aT)"><path fill="#21394f" d="M54.44 27.61 39.53 19.5c0-.29-.14-.51-.34-.63l14.91 8.11c.2.12.34.35.34.63"></path></g><defs><path id="aU" d="M34.75 26.48c.11.06.25.09.4.07 4.97 2.7 9.94 5.41 14.91 8.11a.67.67 0 0 1-.4-.07c-4.47-2.43-10.44-5.67-14.91-8.11z"></path></defs><clipPath id="aV"><use overflow="visible" xlink:href="#aU"></use></clipPath><g clip-path="url(#aV)"><path fill="#263f56" d="m49.66 34.59-14.91-8.11c.01 0 .01.01.02.01l14.91 8.11s-.01 0-.02-.01"></path><path fill="#274058" d="m49.68 34.6-14.91-8.11c.04.02.08.03.12.04l14.91 8.11c-.04 0-.08-.02-.12-.04"></path><path fill="#284159" d="m49.8 34.65-14.91-8.11c.08.02.17.03.26.01.07-.01.15-.03.21-.06l14.91 8.11a.748.748 0 0 1-.47.05"></path></g><defs><path id="aW" d="m39.18 18.88 14.91 8.11a.656.656 0 0 0-.4-.07l-14.91-8.11c.15-.02.29 0 .4.07z"></path></defs><clipPath id="aX"><use overflow="visible" xlink:href="#aW"></use></clipPath><g clip-path="url(#aX)"><path fill="#223c52" d="m53.7 26.92-14.91-8.11c.09-.01.18-.01.26.01l14.91 8.11a.758.758 0 0 0-.26-.01"></path><path fill="#213b51" d="m53.95 26.93-14.91-8.11c.04.01.08.03.12.04l14.91 8.11c-.04-.01-.07-.03-.12-.04"></path><path fill="#203a50" d="m54.07 26.97-14.91-8.11c.01 0 .02.01.02.01l14.91 8.11s-.01 0-.02-.01"></path></g><path fill="#1c354a" d="m52.95 33.46-14.91-8.12.01-5.63 14.91 8.11z"></path><defs><path id="aY" d="m52.96 27.82-14.91-8.11c0-.45.33-.84.74-.9l14.91 8.11c-.41.06-.74.46-.74.9z"></path></defs><clipPath id="aZ"><use overflow="visible" xlink:href="#aY"></use></clipPath><g clip-path="url(#aZ)"><path fill="#1d364b" d="m52.96 27.82-14.91-8.11c0-.11.02-.22.06-.32l14.91 8.11c-.04.1-.06.21-.06.32"></path><path fill="#1d364b" d="M53.01 27.5 38.1 19.39c.02-.04.03-.08.06-.12l14.91 8.11-.06.12"></path><path fill="#1e384d" d="m53.07 27.38-14.91-8.11c.02-.03.04-.07.06-.1l14.91 8.11c-.02.03-.04.07-.06.1"></path><path fill="#1f384d" d="m53.13 27.28-14.91-8.11a.27.27 0 0 1 .07-.08L53.2 27.2c-.03.03-.05.05-.07.08"></path><path fill="#20394f" d="m53.19 27.2-14.91-8.11c.02-.03.05-.05.07-.08l14.91 8.11a.5.5 0 0 1-.07.08"></path><path fill="#203a50" d="m53.27 27.12-14.91-8.11a.55.55 0 0 1 .09-.07l14.91 8.11c-.03.03-.06.05-.09.07"></path><path fill="#213b51" d="m53.36 27.05-14.91-8.11c.04-.03.08-.05.12-.07l14.91 8.11c-.04.02-.08.05-.12.07"></path><path fill="#223c52" d="m53.48 26.98-14.91-8.11c.07-.03.14-.06.22-.07l14.91 8.11c-.08.02-.15.04-.22.07"></path></g><path fill="#29455d" d="M53.7 26.92c.41-.06.74.25.74.69l-.01 5.63c0 .44-.34.85-.74.9-.41.06-.74-.26-.74-.69l.01-5.63c0-.44.33-.84.74-.9z"></path><defs><path id="ba" d="m49.66 34.59-14.91-8.11c-.21-.11-.34-.34-.34-.63l14.91 8.11c0 .29.13.52.34.63z"></path></defs><clipPath id="bb"><use overflow="visible" xlink:href="#ba"></use></clipPath><g clip-path="url(#bb)"><path fill="#1d364b" d="m49.66 34.59-14.91-8.11c-.21-.11-.34-.34-.34-.63l14.91 8.11c0 .29.13.52.34.63"></path></g><path fill="#20384e" d="m50.8 33.76-14.91-8.11.01-5.64 14.91 8.11z"></path><defs><path id="bc" d="M31.51 27.06c.41-.06.74-.46.74-.9l14.91 8.11c0 .44-.33.84-.74.9-4.97-2.7-9.94-5.41-14.91-8.11z"></path></defs><clipPath id="bd"><use overflow="visible" xlink:href="#bc"></use></clipPath><g clip-path="url(#bd)"><path fill="#284159" d="m46.17 35.16-14.91-8.11c.08.02.16.03.25.01.08-.01.15-.03.22-.07l14.91 8.11c-.07.03-.14.05-.22.07-.09.01-.17.01-.25-.01"></path><path fill="#274058" d="M46.64 35.11 31.73 27c.04-.02.08-.04.12-.07l14.91 8.11c-.04.02-.08.05-.12.07"></path><path fill="#263f56" d="m46.76 35.04-14.91-8.11c.03-.02.06-.05.09-.07l14.91 8.11c-.03.02-.06.05-.09.07"></path><path fill="#253e55" d="m46.85 34.97-14.91-8.11c.03-.02.05-.05.08-.08l14.91 8.11c-.03.03-.06.05-.08.08"></path><path fill="#243c53" d="m46.92 34.89-14.91-8.11c.02-.03.05-.05.07-.08l14.91 8.11c-.02.03-.04.05-.07.08"></path><path fill="#233b52" d="M46.99 34.81 32.08 26.7c.02-.03.04-.06.06-.1l14.91 8.11c-.02.03-.04.07-.06.1"></path><path fill="#223a51" d="M47.05 34.71 32.14 26.6l.06-.12 14.91 8.11-.06.12"></path><path fill="#21394f" d="M47.11 34.58 32.2 26.47c.04-.1.06-.21.06-.32l14.91 8.11c-.01.12-.03.22-.06.32"></path></g><defs><path id="be" d="M35.9 20.01c0-.29-.14-.51-.34-.63l14.91 8.11c.21.11.34.34.34.63-4.47-2.43-10.44-5.67-14.91-8.11z"></path></defs><clipPath id="bf"><use overflow="visible" xlink:href="#be"></use></clipPath><g clip-path="url(#bf)"><path fill="#21394f" d="M50.81 28.12 35.9 20.01c0-.29-.14-.51-.34-.63l14.91 8.11c.2.12.34.35.34.63"></path></g><defs><path id="bg" d="M31.12 26.99c.11.06.25.09.39.07 4.97 2.7 9.94 5.41 14.91 8.11a.638.638 0 0 1-.39-.07c-4.48-2.43-10.44-5.67-14.91-8.11z"></path></defs><clipPath id="bh"><use overflow="visible" xlink:href="#bg"></use></clipPath><g clip-path="url(#bh)"><path fill="#263f56" d="m46.03 35.1-14.91-8.11c.01 0 .02.01.02.01l14.91 8.11c-.01 0-.01 0-.02-.01"></path><path fill="#274058" d="M46.05 35.12 31.14 27c.04.02.08.03.12.04l14.91 8.11c-.04 0-.08-.02-.12-.03"></path><path fill="#284159" d="m46.17 35.16-14.91-8.11c.08.02.16.03.25.01.08-.01.15-.03.22-.07l14.91 8.11c-.07.03-.14.05-.22.07-.09.01-.17.01-.25-.01"></path></g><defs><path id="bi" d="m35.56 19.39 14.91 8.11a.656.656 0 0 0-.4-.07l-14.91-8.11c.14-.02.28 0 .4.07z"></path></defs><clipPath id="bj"><use overflow="visible" xlink:href="#bi"></use></clipPath><g clip-path="url(#bj)"><path fill="#223c52" d="m50.07 27.43-14.91-8.11c.09-.01.18-.01.26.01l14.91 8.11a.748.748 0 0 0-.26-.01"></path><path fill="#213b51" d="m50.33 27.44-14.91-8.11c.04.01.08.03.12.04l14.91 8.11c-.04-.01-.08-.03-.12-.04"></path><path fill="#203a50" d="m50.44 27.48-14.91-8.11c.01 0 .02.01.02.01l14.91 8.11s-.01 0-.02-.01"></path></g><path fill="#1c354a" d="m49.32 33.97-14.91-8.12.01-5.63 14.91 8.11z"></path><defs><path id="bk" d="m49.33 28.33-14.91-8.11c0-.45.33-.84.74-.9l14.91 8.11c-.41.06-.74.46-.74.9z"></path></defs><clipPath id="bl"><use overflow="visible" xlink:href="#bk"></use></clipPath><g clip-path="url(#bl)"><path fill="#1d364b" d="m49.33 28.33-14.91-8.11c0-.11.02-.22.06-.32l14.91 8.11c-.04.1-.06.21-.06.32"></path><path fill="#1d364b" d="M49.39 28.01 34.48 19.9c.02-.04.03-.08.06-.12l14.91 8.11c-.03.04-.05.08-.06.12"></path><path fill="#1e384d" d="m49.44 27.89-14.91-8.11c.02-.03.04-.07.06-.1l14.91 8.11c-.02.03-.04.07-.06.1"></path><path fill="#1f384d" d="m49.5 27.79-14.91-8.11a.27.27 0 0 1 .07-.08l14.91 8.11a.5.5 0 0 0-.07.08"></path><path fill="#20394f" d="M49.57 27.71 34.66 19.6c.02-.03.05-.05.07-.08l14.91 8.11a.5.5 0 0 0-.07.08"></path><path fill="#203a50" d="m49.64 27.63-14.91-8.11a.55.55 0 0 1 .09-.07l14.91 8.11c-.03.03-.06.05-.09.07"></path><path fill="#213b51" d="m49.73 27.56-14.91-8.11c.04-.03.08-.05.12-.07l14.91 8.11c-.04.02-.08.05-.12.07"></path><path fill="#223c52" d="m49.85 27.49-14.91-8.11c.07-.03.14-.06.22-.07l14.91 8.11c-.08.02-.15.04-.22.07"></path></g><defs><path id="bm" d="m46.03 35.1-14.91-8.11c-.21-.11-.35-.34-.35-.63l14.91 8.11c0 .29.14.52.35.63z"></path></defs><clipPath id="bn"><use overflow="visible" xlink:href="#bm"></use></clipPath><g clip-path="url(#bn)"><path fill="#1d364b" d="m46.03 35.1-14.91-8.11c-.21-.11-.35-.34-.35-.63l14.91 8.11c0 .29.14.52.35.63"></path></g><path fill="#20384e" d="m47.16 34.27-14.91-8.11.01-5.64 14.91 8.11z"></path><defs><path id="bo" d="M32.26 20.52c0-.29-.13-.52-.34-.63L46.83 28c.21.11.34.34.34.63-4.47-2.43-10.43-5.67-14.91-8.11z"></path></defs><clipPath id="bp"><use overflow="visible" xlink:href="#bo"></use></clipPath><g clip-path="url(#bp)"><path fill="#21394f" d="m47.17 28.63-14.91-8.11c0-.29-.13-.52-.34-.63L46.83 28c.21.12.34.35.34.63"></path></g><defs><path id="bq" d="m31.92 19.9 14.91 8.11a.656.656 0 0 0-.4-.07l-14.91-8.11c.15-.02.29 0 .4.07z"></path></defs><clipPath id="br"><use overflow="visible" xlink:href="#bq"></use></clipPath><g clip-path="url(#br)"><path fill="#223c52" d="m46.43 27.94-14.91-8.11c.09-.01.18-.01.26.01l14.91 8.11a.738.738 0 0 0-.26-.01"></path><path fill="#213b51" d="m46.69 27.95-14.91-8.11c.04.01.08.02.12.04L46.81 28a.612.612 0 0 0-.12-.05"></path><path fill="#203a50" d="M46.81 28 31.9 19.88c.01 0 .01.01.02.01L46.83 28h-.02"></path></g><path fill="#1c354a" d="m45.68 34.48-14.91-8.11.01-5.64 14.91 8.11z"></path><defs><path id="bs" d="m45.69 28.84-14.91-8.11c0-.45.34-.85.74-.9l14.91 8.11c-.4.06-.74.46-.74.9z"></path></defs><clipPath id="bt"><use overflow="visible" xlink:href="#bs"></use></clipPath><g clip-path="url(#bt)"><path fill="#1d364b" d="m45.69 28.84-14.91-8.11c0-.11.02-.22.06-.32l14.91 8.11c-.04.11-.06.21-.06.32"></path><path fill="#1d364b" d="m45.75 28.53-14.91-8.11c.02-.04.03-.08.06-.12l14.91 8.11c-.03.03-.04.07-.06.12"></path><path fill="#1e384d" d="M45.81 28.4 30.9 20.29c.02-.03.04-.07.06-.1l14.91 8.11c-.03.04-.05.07-.06.1"></path><path fill="#1f384d" d="M45.87 28.31 30.96 20.2a.27.27 0 0 1 .07-.08l14.91 8.11c-.03.02-.05.05-.07.08"></path><path fill="#20394f" d="m45.93 28.22-14.91-8.11c.02-.03.05-.05.08-.08l14.91 8.11-.08.08"></path><path fill="#203a50" d="M46.01 28.14 31.1 20.03a.55.55 0 0 1 .09-.07l14.91 8.11c-.03.03-.06.05-.09.07"></path><path fill="#213b51" d="m46.1 28.07-14.91-8.11c.04-.03.08-.05.12-.07L46.22 28c-.04.02-.08.05-.12.07"></path><path fill="#223c52" d="m46.22 28-14.91-8.11c.07-.03.14-.05.22-.07l14.91 8.11c-.08.02-.15.04-.22.07"></path></g><path fill="#29455d" d="M46.43 27.94c.41-.06.74.25.74.69l-.01 5.63c0 .44-.33.84-.74.9-.41.06-.74-.26-.74-.69l.01-5.63c0-.44.34-.84.74-.9z"></path><defs><path id="bu" d="M22.49 26.29c.27.15.59.21.93.16l14.91 8.11c-.34.05-.66-.01-.93-.16-4.47-2.43-10.43-5.67-14.91-8.11z"></path></defs><clipPath id="bv"><use overflow="visible" xlink:href="#bu"></use></clipPath><g clip-path="url(#bv)"><path fill="#263f56" d="m37.4 34.4-14.91-8.11c.02.01.04.02.05.03l14.91 8.11a.219.219 0 0 0-.05-.03"></path><path fill="#274058" d="m37.46 34.43-14.91-8.11c.09.04.18.08.27.1l14.91 8.11c-.1-.02-.19-.06-.27-.1"></path><path fill="#284159" d="m37.73 34.53-14.91-8.11c.19.05.39.06.6.03l14.91 8.11c-.21.03-.41.02-.6-.03"></path></g><defs><path id="bw" d="M25.16 24.33c0-.67-.32-1.21-.81-1.47l14.91 8.11c.49.26.81.8.81 1.47 0 1.03-.78 1.98-1.74 2.12l-14.91-8.11c.95-.13 1.74-1.08 1.74-2.12z"></path></defs><clipPath id="bx"><use overflow="visible" xlink:href="#bw"></use></clipPath><g clip-path="url(#bx)"><path fill="#284159" d="m38.33 34.56-14.91-8.11c.18-.02.35-.08.51-.15l14.91 8.11c-.17.08-.34.13-.51.15"></path><path fill="#274058" d="M38.83 34.41 23.92 26.3c.1-.05.19-.1.28-.16l14.91 8.11c-.08.06-.18.12-.28.16"></path><path fill="#263f56" d="m39.12 34.25-14.91-8.11c.07-.05.14-.11.21-.17l14.91 8.11c-.07.06-.14.12-.21.17"></path><path fill="#253e55" d="m39.33 34.08-14.91-8.11.18-.18 14.9 8.11c-.05.07-.11.13-.17.18"></path><path fill="#243c53" d="m39.5 33.9-14.91-8.11c.06-.06.11-.13.16-.2l14.91 8.11c-.05.07-.1.14-.16.2"></path><path fill="#233b52" d="m39.66 33.7-14.91-8.11c.05-.07.1-.15.14-.23l14.91 8.11c-.04.08-.09.16-.14.23"></path><path fill="#223a51" d="m39.8 33.47-14.91-8.11c.05-.09.09-.19.13-.29l14.91 8.11c-.03.1-.08.2-.13.29"></path><path fill="#21394f" d="m39.93 33.18-14.91-8.11c.09-.23.13-.48.13-.73 0-.67-.32-1.21-.81-1.47l14.91 8.11c.49.26.81.8.81 1.47.01.25-.04.5-.13.73"></path></g><defs><path id="by" d="m24.35 22.86 14.91 8.11c-.27-.15-.59-.21-.93-.16L23.42 22.7c.35-.04.66.02.93.16z"></path></defs><clipPath id="bz"><use overflow="visible" xlink:href="#by"></use></clipPath><g clip-path="url(#bz)"><path fill="#669288" d="m38.34 30.82-14.91-8.11c.21-.03.41-.02.6.03l14.91 8.11c-.19-.05-.39-.06-.6-.03"></path><path fill="#648f85" d="m38.93 30.85-14.91-8.11c.1.02.19.06.27.1l14.91 8.11c-.08-.04-.17-.08-.27-.1"></path><path fill="#618c82" d="M39.21 30.95 24.3 22.84c.02.01.04.02.05.03l14.91 8.11c-.02-.01-.03-.02-.05-.03"></path></g><defs><path id="bA" d="m37.4 34.4-14.91-8.11c-.49-.26-.81-.8-.81-1.47 0-1.03.78-1.98 1.74-2.12l14.91 8.11c-.96.13-1.74 1.09-1.74 2.12 0 .67.33 1.21.81 1.47z"></path></defs><clipPath id="bB"><use overflow="visible" xlink:href="#bA"></use></clipPath><g clip-path="url(#bB)"><path fill="#557d74" d="m37.4 34.4-14.91-8.11c-.49-.26-.81-.8-.81-1.47 0-.25.05-.5.13-.73l14.91 8.11c-.09.23-.13.48-.13.73 0 .67.33 1.21.81 1.47"></path><path fill="#578077" d="m36.73 32.2-14.91-8.11c.04-.1.08-.2.13-.29l14.91 8.11c-.05.09-.09.19-.13.29"></path><path fill="#5a827a" d="M36.86 31.91 21.95 23.8c.04-.08.09-.16.14-.23L37 31.68c-.05.07-.1.15-.14.23"></path><path fill="#5c857d" d="m37 31.68-14.91-8.11c.05-.07.1-.14.16-.2l14.91 8.11c-.06.06-.11.13-.16.2"></path><path fill="#5f8980" d="m37.16 31.48-14.91-8.11.18-.18 14.91 8.11c-.06.05-.12.11-.18.18"></path><path fill="#618c82" d="m37.34 31.3-14.91-8.11c.07-.06.14-.12.21-.17l14.91 8.11c-.08.05-.15.11-.21.17"></path><path fill="#648f85" d="m37.55 31.13-14.91-8.11c.09-.06.18-.12.28-.16l14.91 8.11c-.1.04-.19.1-.28.16"></path><path fill="#669288" d="m37.83 30.97-14.91-8.11c.16-.08.33-.13.51-.15l14.91 8.11c-.18.02-.35.07-.51.15"></path></g><path fill="#80b5a7" d="M38.34 30.82c.96-.13 1.73.6 1.73 1.63 0 1.03-.78 1.98-1.74 2.12-.96.13-1.73-.6-1.73-1.63 0-1.04.78-1.99 1.74-2.12z"></path><defs><path id="bC" d="M14.84 27.37c.27.15.59.21.93.16l14.91 8.11c-.34.05-.66-.01-.93-.16-4.47-2.43-10.43-5.68-14.91-8.11z"></path></defs><clipPath id="bD"><use overflow="visible" xlink:href="#bC"></use></clipPath><g clip-path="url(#bD)"><path fill="#263f56" d="m29.75 35.48-14.91-8.11c.02.01.04.02.05.03l14.91 8.11c-.01-.01-.03-.02-.05-.03"></path><path fill="#274058" d="M29.81 35.51 14.9 27.4c.09.04.18.08.27.1l14.91 8.11c-.1-.03-.19-.06-.27-.1"></path><path fill="#284159" d="M30.08 35.61 15.17 27.5c.19.05.39.06.6.03l14.91 8.11c-.21.03-.41.02-.6-.03"></path></g><defs><path id="bE" d="M17.51 25.41c0-.67-.32-1.21-.81-1.47l14.91 8.11c.49.26.81.8.81 1.47 0 1.03-.78 1.98-1.74 2.12l-14.91-8.11c.95-.14 1.74-1.09 1.74-2.12z"></path></defs><clipPath id="bF"><use overflow="visible" xlink:href="#bE"></use></clipPath><g clip-path="url(#bF)"><path fill="#284159" d="m30.68 35.64-14.91-8.11c.18-.02.35-.08.51-.15l14.91 8.11c-.17.07-.34.12-.51.15"></path><path fill="#274058" d="m31.18 35.49-14.91-8.11c.1-.05.19-.1.28-.16l14.91 8.11c-.08.06-.18.11-.28.16"></path><path fill="#263f56" d="m31.46 35.32-14.91-8.11c.07-.05.14-.11.21-.17l14.91 8.11a.87.87 0 0 1-.21.17"></path><path fill="#253e55" d="m31.68 35.16-14.91-8.11.18-.18 14.91 8.11-.18.18"></path><path fill="#243c53" d="m31.85 34.98-14.91-8.11c.06-.06.11-.13.16-.2l14.91 8.11c-.05.07-.1.13-.16.2"></path><path fill="#233b52" d="M32.01 34.78 17.1 26.67c.05-.07.1-.15.14-.23l14.91 8.11c-.04.08-.09.15-.14.23"></path><path fill="#223a51" d="m32.15 34.55-14.91-8.11c.05-.09.09-.19.13-.29l14.91 8.11c-.03.1-.08.19-.13.29"></path><path fill="#21394f" d="m32.28 34.26-14.91-8.11c.09-.23.13-.48.13-.73 0-.67-.32-1.21-.81-1.47l14.91 8.11c.49.26.81.8.81 1.47.01.24-.04.49-.13.73"></path></g><defs><path id="bG" d="m16.7 23.94 14.91 8.11c-.27-.15-.59-.21-.93-.16l-14.91-8.11c.34-.05.66.01.93.16z"></path></defs><clipPath id="bH"><use overflow="visible" xlink:href="#bG"></use></clipPath><g clip-path="url(#bH)"><path fill="#9b2f47" d="m30.68 31.89-14.91-8.11c.21-.03.41-.02.6.03l14.91 8.11c-.18-.05-.39-.06-.6-.03"></path><path fill="#972e45" d="m31.28 31.92-14.91-8.11c.1.02.19.06.27.1l14.91 8.11c-.08-.04-.17-.07-.27-.1"></path><path fill="#942c44" d="m31.56 32.02-14.91-8.11c.02.01.04.02.05.03l14.91 8.11c-.02-.01-.04-.02-.05-.03"></path></g><defs><path id="bI" d="m29.75 35.48-14.91-8.11c-.49-.26-.81-.8-.81-1.47 0-1.03.78-1.98 1.74-2.12l14.91 8.11c-.96.13-1.74 1.09-1.74 2.12 0 .66.33 1.2.81 1.47z"></path></defs><clipPath id="bJ"><use overflow="visible" xlink:href="#bI"></use></clipPath><g clip-path="url(#bJ)"><path fill="#83243a" d="m29.75 35.48-14.91-8.11c-.49-.26-.81-.8-.81-1.47 0-.25.05-.5.13-.73l14.91 8.11c-.09.23-.13.48-.13.73 0 .66.33 1.2.81 1.47"></path><path fill="#86263c" d="m29.08 33.27-14.91-8.11c.04-.1.08-.2.13-.29l14.91 8.11c-.05.1-.09.19-.13.29"></path><path fill="#8a283e" d="M29.21 32.98 14.3 24.87c.04-.08.09-.16.14-.23l14.91 8.11c-.05.07-.1.15-.14.23"></path><path fill="#8d2940" d="m29.35 32.75-14.91-8.11c.05-.07.1-.14.16-.2l14.91 8.11a2.8 2.8 0 0 0-.16.2"></path><path fill="#902b42" d="M29.51 32.55 14.6 24.44l.18-.18 14.91 8.11-.18.18"></path><path fill="#942c44" d="m29.69 32.37-14.91-8.11c.07-.06.14-.12.21-.17L29.9 32.2c-.08.06-.15.11-.21.17"></path><path fill="#972e45" d="M29.9 32.21 14.99 24.1c.09-.06.18-.12.28-.16l14.91 8.11c-.1.04-.19.09-.28.16"></path><path fill="#9b2f47" d="m30.18 32.04-14.91-8.11c.16-.08.33-.13.5-.15l14.91 8.11c-.17.03-.34.08-.5.15"></path></g><defs><path id="bK" d="M7.19 28.44c.27.15.59.21.93.16l14.91 8.11c-.34.05-.66-.01-.93-.16-4.47-2.43-10.43-5.67-14.91-8.11z"></path></defs><clipPath id="bL"><use overflow="visible" xlink:href="#bK"></use></clipPath><g clip-path="url(#bL)"><path fill="#263f56" d="M22.1 36.55 7.19 28.44c.02.01.04.02.05.03l14.91 8.11c-.01-.01-.03-.02-.05-.03"></path><path fill="#274058" d="M22.16 36.58 7.25 28.47c.09.04.18.08.27.1l14.91 8.11c-.1-.02-.19-.06-.27-.1"></path><path fill="#284159" d="M22.43 36.68 7.52 28.57c.19.05.39.06.6.03l14.91 8.11c-.21.03-.41.02-.6-.03"></path></g><defs><path id="bM" d="M9.86 26.49c0-.67-.32-1.21-.81-1.47l14.91 8.11c.49.26.81.8.81 1.47 0 1.03-.78 1.98-1.74 2.12L8.12 28.6c.95-.13 1.73-1.08 1.74-2.11z"></path></defs><clipPath id="bN"><use overflow="visible" xlink:href="#bM"></use></clipPath><g clip-path="url(#bN)"><path fill="#284159" d="M23.03 36.71 8.12 28.6c.18-.02.35-.08.51-.15l14.91 8.11c-.17.08-.34.13-.51.15"></path><path fill="#274058" d="M23.53 36.56 8.62 28.45c.1-.05.19-.1.28-.16l14.91 8.11c-.09.06-.18.12-.28.16"></path><path fill="#263f56" d="M23.81 36.4 8.9 28.29c.07-.05.14-.11.21-.17l14.91 8.11c-.06.06-.13.12-.21.17"></path><path fill="#253e55" d="M24.02 36.23 9.11 28.12l.18-.18 14.91 8.11c-.05.07-.11.13-.18.18"></path><path fill="#243c53" d="M24.2 36.05 9.29 27.94c.06-.06.11-.13.16-.2l14.91 8.11c-.05.07-.1.14-.16.2"></path><path fill="#233b52" d="M24.36 35.85 9.45 27.74c.05-.07.1-.15.14-.23l14.91 8.11c-.04.08-.09.16-.14.23"></path><path fill="#223a51" d="M24.5 35.62 9.59 27.51c.05-.09.09-.19.13-.29l14.91 8.11c-.03.1-.08.2-.13.29"></path><path fill="#21394f" d="M24.63 35.33 9.72 27.22c.09-.23.13-.48.13-.73 0-.67-.32-1.21-.81-1.47l14.91 8.11c.49.26.81.8.81 1.47.01.25-.04.5-.13.73"></path></g><defs><path id="bO" d="m9.05 25.02 14.91 8.11c-.27-.15-.59-.21-.93-.16L8.12 24.86c.34-.05.66.01.93.16z"></path></defs><clipPath id="bP"><use overflow="visible" xlink:href="#bO"></use></clipPath><g clip-path="url(#bP)"><path fill="#a4a5a7" d="M23.03 32.97 8.12 24.86c.21-.03.41-.02.6.03L23.63 33c-.18-.05-.39-.06-.6-.03"></path><path fill="#a0a2a4" d="M23.63 33 8.72 24.89c.1.02.19.06.27.1L23.9 33.1c-.08-.04-.17-.08-.27-.1"></path><path fill="#9d9ea0" d="M23.91 33.1 9 24.99c.02.01.04.02.05.03l14.91 8.11a.219.219 0 0 1-.05-.03"></path></g><defs><path id="bQ" d="M22.1 36.55 7.19 28.44c-.49-.26-.81-.8-.81-1.47 0-1.03.78-1.98 1.74-2.12l14.91 8.11c-.96.13-1.74 1.09-1.74 2.12 0 .67.33 1.21.81 1.47z"></path></defs><clipPath id="bR"><use overflow="visible" xlink:href="#bQ"></use></clipPath><g clip-path="url(#bR)"><path fill="#8a8c8e" d="M22.1 36.55 7.19 28.44c-.49-.26-.81-.8-.81-1.47 0-.25.05-.5.13-.73l14.91 8.11c-.09.23-.13.48-.13.73 0 .67.33 1.21.81 1.47"></path><path fill="#8e8f92" d="M21.43 34.35 6.52 26.24c.04-.1.08-.2.13-.29l14.91 8.11c-.05.09-.09.19-.13.29"></path><path fill="#929395" d="M21.56 34.06 6.65 25.95c.04-.08.09-.16.14-.23l14.91 8.11c-.05.07-.1.15-.14.23"></path><path fill="#959799" d="M21.7 33.83 6.79 25.72c.05-.07.1-.14.16-.2l14.91 8.11c-.06.06-.11.13-.16.2"></path><path fill="#999a9c" d="M21.86 33.63 6.95 25.52l.18-.18 14.91 8.11c-.07.05-.12.11-.18.18"></path><path fill="#9d9ea0" d="M22.04 33.45 7.13 25.34c.07-.06.14-.12.21-.17l14.91 8.11c-.08.05-.15.11-.21.17"></path><path fill="#a0a2a4" d="M22.25 33.28 7.34 25.17c.09-.06.18-.12.28-.16l14.91 8.11c-.1.04-.19.1-.28.16"></path><path fill="#a4a5a7" d="M22.53 33.12 7.62 25.01c.16-.08.33-.13.5-.15l14.91 8.11c-.17.02-.34.07-.5.15"></path></g><defs><path id="bS" d="M17.52 41.4 2.61 33.28c-.4-.22-.67-.67-.67-1.22l14.91 8.11c.01.56.27 1.01.67 1.23z"></path></defs><clipPath id="bT"><use overflow="visible" xlink:href="#bS"></use></clipPath><g clip-path="url(#bT)"><path fill="#21394f" d="M17.52 41.4 2.61 33.28c-.4-.22-.67-.67-.67-1.22l14.91 8.11c.01.56.27 1.01.67 1.23"></path></g><path fill="#314d68" d="M60.62 23.54c.79-.11 1.43.5 1.43 1.35l-.02 8.94c0 .86-.64 1.65-1.44 1.76l-42.3 5.94c-.8.11-1.44-.49-1.44-1.35l.02-8.94c0-.86.64-1.65 1.44-1.76l42.31-5.94zm-29.94 12.1c.96-.13 1.74-1.09 1.74-2.12s-.78-1.76-1.73-1.63c-.96.13-1.74 1.09-1.74 2.12-.01 1.03.77 1.76 1.73 1.63m7.65-1.08c.96-.13 1.74-1.09 1.74-2.12s-.78-1.76-1.73-1.63c-.96.13-1.74 1.09-1.74 2.12-.01 1.04.77 1.77 1.73 1.63m-15.3 2.15c.96-.13 1.74-1.09 1.74-2.12s-.78-1.76-1.73-1.63c-.96.13-1.74 1.09-1.74 2.12-.01 1.04.77 1.77 1.73 1.63m27.77-2.95.01-5.63c0-.45-.33-.75-.74-.69-.41.06-.74.46-.74.9l-.01 5.63c0 .44.33.75.74.69.4-.06.74-.46.74-.9m3.63-.51.01-5.63c0-.45-.33-.75-.74-.69-.41.06-.74.46-.74.9l-.01 5.63c0 .44.33.75.74.69.4-.06.74-.46.74-.9m-7.27 1.02.01-5.63c0-.45-.33-.75-.74-.69-.41.06-.74.46-.74.9l-.01 5.63c0 .44.33.75.74.69.41-.06.74-.46.74-.9m10.89-1.53.01-5.63c0-.45-.33-.75-.74-.69-.41.06-.74.46-.74.9l-.01 5.63c0 .44.33.75.74.69.41-.06.74-.46.74-.9"></path><path fill="#29455d" d="M50.07 27.43c.41-.06.74.25.74.69l-.01 5.63c0 .44-.34.85-.74.9-.41.06-.74-.26-.74-.69l.01-5.63c0-.44.33-.84.74-.9z"></path><path fill="#c03f5a" d="M30.68 31.89c.96-.13 1.73.6 1.73 1.63 0 1.03-.78 1.98-1.74 2.12-.96.13-1.73-.6-1.73-1.63.01-1.03.79-1.98 1.74-2.12z"></path><path fill="#cdcecf" d="M23.03 32.97c.96-.13 1.73.6 1.73 1.63 0 1.03-.78 1.98-1.74 2.12-.96.13-1.73-.6-1.73-1.63.01-1.04.79-1.99 1.74-2.12z"></path><path fill="#2a445c" d="M18.32 29.48 3.41 21.37l42.3-5.95 14.91 8.12z"></path><path fill="#20384e" d="M16.86 40.17 1.95 32.06l.02-8.93 14.91 8.11z"></path><defs><path id="bU" d="M16.88 31.24 1.97 23.13c0-.86.64-1.65 1.44-1.76l14.91 8.11c-.8.11-1.44.9-1.44 1.76z"></path></defs><clipPath id="bV"><use overflow="visible" xlink:href="#bU"></use></clipPath><g clip-path="url(#bV)"><path fill="#21394f" d="M16.88 31.24 1.97 23.13c0-.21.04-.42.11-.61l14.91 8.11c-.07.19-.11.4-.11.61"></path><path fill="#223a51" d="M16.99 30.63 2.08 22.52c.03-.08.07-.16.11-.24l14.91 8.11a.88.88 0 0 0-.11.24"></path><path fill="#233b52" d="M17.1 30.38 2.19 22.27c.04-.07.07-.13.12-.19l14.91 8.11c-.05.06-.09.13-.12.19"></path><path fill="#243c53" d="M17.21 30.19 2.3 22.08c.04-.06.08-.11.13-.16l14.91 8.11-.13.16"></path><path fill="#253e55" d="M17.34 30.03 2.43 21.92l.15-.15 14.91 8.11-.15.15"></path><path fill="#263f56" d="M17.49 29.88 2.58 21.77c.06-.05.11-.1.17-.14l14.91 8.11c-.06.04-.11.09-.17.14"></path><path fill="#274058" d="M17.66 29.74 2.75 21.63c.07-.05.15-.1.23-.13l14.91 8.11c-.07.04-.15.08-.23.13"></path><path fill="#284159" d="M17.9 29.61 2.99 21.5c.13-.06.27-.11.42-.13l14.91 8.11c-.15.02-.29.06-.42.13"></path></g><defs><path id="bW" d="M42.43 10.12c.41-.06.74-.46.74-.9l14.91 8.11c0 .44-.34.85-.74.9-4.97-2.7-9.94-5.41-14.91-8.11z"></path></defs><clipPath id="bX"><use overflow="visible" xlink:href="#bW"></use></clipPath><g clip-path="url(#bX)"><path fill="#284159" d="m57.09 18.22-14.91-8.11c.08.02.16.03.25.01.07-.01.15-.03.21-.06l14.91 8.11a.83.83 0 0 1-.21.06c-.09.01-.17.01-.25-.01"></path><path fill="#274058" d="m57.56 18.16-14.91-8.11c.04-.02.08-.04.12-.07l14.91 8.11c-.04.03-.08.06-.12.07"></path><path fill="#263f56" d="M57.68 18.1 42.77 9.98c.03-.02.06-.05.09-.07l14.91 8.11c-.03.03-.06.05-.09.08"></path><path fill="#253e55" d="M57.77 18.02 42.86 9.91c.03-.02.05-.05.08-.08l14.91 8.11-.08.08"></path><path fill="#243c53" d="M57.84 17.95 42.93 9.84c.02-.03.05-.06.07-.09l14.91 8.11a.55.55 0 0 1-.07.09"></path><path fill="#233b52" d="M57.91 17.86 43 9.75c.02-.03.04-.06.06-.1l14.91 8.11c-.02.04-.04.07-.06.1"></path><path fill="#223a51" d="M57.97 17.76 43.06 9.65c.02-.04.04-.08.06-.13l14.91 8.11c-.02.05-.04.09-.06.13"></path><path fill="#21394f" d="M58.03 17.64 43.12 9.53c.04-.1.06-.2.06-.31l14.91 8.11c-.01.1-.03.21-.06.31"></path></g><defs><path id="bY" d="M42.04 10.05c.11.06.25.09.39.07 4.97 2.7 9.94 5.41 14.91 8.11a.638.638 0 0 1-.39-.07c-4.47-2.43-10.44-5.68-14.91-8.11z"></path></defs><clipPath id="bZ"><use overflow="visible" xlink:href="#bY"></use></clipPath><g clip-path="url(#bZ)"><path fill="#263f56" d="m56.95 18.16-14.91-8.11c.01 0 .02.01.02.01l14.91 8.11c-.01 0-.01-.01-.02-.01"></path><path fill="#274058" d="m56.97 18.17-14.91-8.11c.04.02.08.03.12.04l14.91 8.11c-.04 0-.08-.02-.12-.04"></path><path fill="#284159" d="m57.09 18.22-14.91-8.11c.08.02.16.03.25.01.07-.01.15-.03.21-.06l14.91 8.11a.83.83 0 0 1-.21.06c-.09.01-.17.01-.25-.01"></path></g><defs><path id="ca" d="m56.95 18.16-14.91-8.11c-.21-.11-.35-.34-.35-.63l14.91 8.11c0 .29.14.52.35.63z"></path></defs><clipPath id="cb"><use overflow="visible" xlink:href="#ca"></use></clipPath><g clip-path="url(#cb)"><path fill="#1d364b" d="m56.95 18.16-14.91-8.11c-.21-.11-.35-.34-.35-.63l14.91 8.11c0 .29.14.52.35.63"></path></g><defs><path id="cc" d="m46.5.14 14.91 8.11c-.22-.12-.48-.17-.76-.13L45.74.01c.28-.04.54.01.76.13z"></path></defs><clipPath id="cd"><use overflow="visible" xlink:href="#cc"></use></clipPath><g clip-path="url(#cd)"><path fill="#284159" d="M60.65 8.12 45.74.01c.17-.02.34-.01.49.03l14.91 8.11c-.15-.04-.32-.05-.49-.03"></path><path fill="#274058" d="M61.14 8.15 46.23.04c.08.02.15.05.23.08l14.91 8.11c-.08-.03-.15-.06-.23-.08"></path><path fill="#263f56" d="M61.37 8.23 46.46.12c.01.01.03.01.04.02l14.91 8.11c-.01 0-.03-.01-.04-.02"></path></g><path fill="#20384e" d="M58.08 17.33 43.17 9.22l.01-5.64 14.91 8.11z"></path><defs><path id="ce" d="M38.8 10.63c.41-.06.74-.46.74-.9l14.91 8.11c0 .44-.34.85-.74.9-4.97-2.7-9.94-5.41-14.91-8.11z"></path></defs><clipPath id="cf"><use overflow="visible" xlink:href="#ce"></use></clipPath><g clip-path="url(#cf)"><path fill="#284159" d="m53.46 18.73-14.91-8.11c.08.02.17.03.26.01.07-.01.15-.03.21-.06l14.91 8.11a.738.738 0 0 1-.47.05"></path><path fill="#274058" d="m53.93 18.67-14.91-8.11c.04-.02.08-.04.12-.07l14.91 8.11c-.04.03-.08.06-.12.07"></path><path fill="#263f56" d="M54.05 18.61 39.14 10.5c.03-.02.06-.05.09-.07l14.91 8.11c-.03.02-.06.04-.09.07"></path><path fill="#253e55" d="m54.14 18.53-14.91-8.11c.03-.02.05-.05.08-.08l14.91 8.11-.08.08"></path><path fill="#243c53" d="M54.21 18.46 39.3 10.35c.02-.03.05-.06.07-.09l14.91 8.11c-.02.03-.04.06-.07.09"></path><path fill="#233b52" d="m54.28 18.37-14.91-8.11c.02-.03.04-.06.06-.1l14.91 8.11c-.02.04-.04.07-.06.1"></path><path fill="#223a51" d="m54.34 18.27-14.91-8.11c.02-.04.04-.08.06-.13l14.91 8.11c-.02.05-.04.09-.06.13"></path><path fill="#21394f" d="m54.4 18.15-14.91-8.11c.04-.1.06-.2.06-.31l14.91 8.11c-.01.1-.03.21-.06.31"></path></g><defs><path id="cg" d="M43.18 3.58c0-.29-.14-.51-.34-.63l14.91 8.11c.21.11.34.34.34.63-4.47-2.43-10.43-5.68-14.91-8.11z"></path></defs><clipPath id="ch"><use overflow="visible" xlink:href="#cg"></use></clipPath><g clip-path="url(#ch)"><path fill="#21394f" d="M58.09 11.69 43.18 3.58c0-.29-.14-.51-.34-.63l14.91 8.11c.21.12.34.35.34.63"></path></g><defs><path id="ci" d="M38.41 10.56c.11.06.25.09.4.07 4.97 2.7 9.94 5.41 14.91 8.11a.67.67 0 0 1-.4-.07c-4.48-2.43-10.44-5.68-14.91-8.11z"></path></defs><clipPath id="cj"><use overflow="visible" xlink:href="#ci"></use></clipPath><g clip-path="url(#cj)"><path fill="#263f56" d="m53.32 18.67-14.91-8.11c.01 0 .01.01.02.01l14.91 8.11c-.01 0-.02 0-.02-.01"></path><path fill="#274058" d="m53.34 18.68-14.91-8.11c.04.02.08.03.12.04l14.91 8.11c-.04 0-.08-.02-.12-.04"></path><path fill="#284159" d="m53.46 18.73-14.91-8.11c.08.02.17.03.26.01.07-.01.15-.03.21-.06l14.91 8.11a.738.738 0 0 1-.47.05"></path></g><defs><path id="ck" d="m42.84 2.95 14.91 8.11c-.11-.06-.25-.08-.39-.06L42.45 2.89c.14-.02.28 0 .39.06z"></path></defs><clipPath id="cl"><use overflow="visible" xlink:href="#ck"></use></clipPath><g clip-path="url(#cl)"><path fill="#223c52" d="M57.36 11 42.45 2.89c.09-.01.18-.01.26.01l14.91 8.11a.572.572 0 0 0-.26-.01"></path><path fill="#213b51" d="M57.61 11.01 42.7 2.9c.04.01.08.03.12.04l14.91 8.11c-.04-.01-.08-.03-.12-.04"></path><path fill="#203a50" d="M57.73 11.05 42.82 2.94c.01 0 .02.01.02.01l14.91 8.11c-.01 0-.01 0-.02-.01"></path></g><path fill="#1c354a" d="M56.6 17.53 41.69 9.42l.01-5.63 14.91 8.11z"></path><defs><path id="cm" d="M56.61 11.9 41.7 3.79c0-.45.34-.85.74-.9L57.36 11c-.41.05-.75.45-.75.9z"></path></defs><clipPath id="cn"><use overflow="visible" xlink:href="#cm"></use></clipPath><g clip-path="url(#cn)"><path fill="#1d364b" d="M56.61 11.9 41.7 3.79c0-.11.02-.22.06-.32l14.91 8.11c-.04.1-.06.21-.06.32"></path><path fill="#1d364b" d="M56.67 11.58 41.76 3.47c.02-.04.03-.08.06-.12l14.91 8.11-.06.12"></path><path fill="#1e384d" d="M56.73 11.46 41.82 3.35c.02-.03.04-.07.06-.1l14.91 8.11c-.03.03-.05.07-.06.1"></path><path fill="#1f384d" d="M56.79 11.36 41.88 3.25a.27.27 0 0 1 .07-.08l14.91 8.11a.5.5 0 0 0-.07.08"></path><path fill="#20394f" d="M56.85 11.28 41.94 3.17c.02-.03.05-.05.08-.08l14.91 8.11-.08.08"></path><path fill="#203a50" d="M56.93 11.2 42.02 3.09a.55.55 0 0 1 .09-.07l14.91 8.11c-.03.02-.06.05-.09.07"></path><path fill="#213b51" d="M57.02 11.13 42.11 3.02c.04-.03.08-.05.12-.07l14.91 8.11c-.04.02-.08.05-.12.07"></path><path fill="#223c52" d="M57.14 11.06 42.23 2.95c.07-.03.14-.05.22-.07L57.36 11c-.08.01-.15.03-.22.06"></path></g><path fill="#29455d" d="M57.36 11c.41-.06.74.25.74.69l-.01 5.63c0 .44-.34.85-.74.9-.41.06-.74-.26-.74-.69l.01-5.63c-.01-.45.33-.85.74-.9z"></path><defs><path id="co" d="m53.32 18.67-14.91-8.11c-.21-.11-.34-.34-.34-.63l14.91 8.11c-.01.29.13.52.34.63z"></path></defs><clipPath id="cp"><use overflow="visible" xlink:href="#co"></use></clipPath><g clip-path="url(#cp)"><path fill="#1d364b" d="m53.32 18.67-14.91-8.11c-.21-.11-.34-.34-.34-.63l14.91 8.11c-.01.29.13.52.34.63"></path></g><path fill="#20384e" d="M54.45 17.84 39.54 9.73l.02-5.64 14.91 8.11z"></path><defs><path id="cq" d="M35.17 11.14c.41-.06.74-.46.74-.9l14.91 8.11c0 .44-.34.85-.74.9-4.97-2.7-9.94-5.41-14.91-8.11z"></path></defs><clipPath id="cr"><use overflow="visible" xlink:href="#cq"></use></clipPath><g clip-path="url(#cr)"><path fill="#284159" d="m49.83 19.24-14.91-8.11c.08.02.17.03.26.01.07-.01.15-.03.21-.06l14.91 8.11a.738.738 0 0 1-.47.05"></path><path fill="#274058" d="m50.3 19.18-14.91-8.11c.04-.02.08-.04.12-.07l14.91 8.11c-.04.03-.08.06-.12.07"></path><path fill="#263f56" d="M50.42 19.12 35.51 11c.03-.02.06-.05.09-.07l14.91 8.11c-.03.03-.06.05-.09.08"></path><path fill="#253e55" d="M50.51 19.04 35.6 10.93c.03-.02.05-.05.08-.08l14.91 8.11c-.03.03-.05.06-.08.08"></path><path fill="#243c53" d="m50.58 18.97-14.91-8.11c.02-.03.05-.06.07-.09l14.91 8.11c-.02.03-.04.06-.07.09"></path><path fill="#233b52" d="m50.65 18.88-14.91-8.11c.02-.03.04-.06.06-.1l14.91 8.11a.88.88 0 0 1-.06.1"></path><path fill="#223a51" d="M50.71 18.78 35.8 10.67c.02-.04.04-.08.06-.13l14.91 8.11c-.02.05-.04.09-.06.13"></path><path fill="#21394f" d="m50.77 18.66-14.91-8.11c.04-.1.06-.2.06-.31l14.91 8.11c0 .1-.02.21-.06.31"></path></g><defs><path id="cs" d="M39.56 4.09c0-.29-.14-.51-.34-.63l14.91 8.11c.21.11.34.34.34.63-4.48-2.43-10.44-5.68-14.91-8.11z"></path></defs><clipPath id="ct"><use overflow="visible" xlink:href="#cs"></use></clipPath><g clip-path="url(#ct)"><path fill="#21394f" d="M54.47 12.2 39.56 4.09c0-.29-.14-.51-.34-.63l14.91 8.11c.2.12.34.35.34.63"></path></g><defs><path id="cu" d="M34.78 11.07c.11.06.25.09.4.07 4.97 2.7 9.94 5.41 14.91 8.11a.67.67 0 0 1-.4-.07c-4.47-2.43-10.44-5.68-14.91-8.11z"></path></defs><clipPath id="cv"><use overflow="visible" xlink:href="#cu"></use></clipPath><g clip-path="url(#cv)"><path fill="#263f56" d="m49.69 19.18-14.91-8.11c.01 0 .01.01.02.01l14.91 8.11c-.01 0-.01 0-.02-.01"></path><path fill="#274058" d="M49.71 19.19 34.8 11.08c.04.02.08.03.12.04l14.91 8.11c-.04 0-.08-.02-.12-.04"></path><path fill="#284159" d="m49.83 19.24-14.91-8.11c.08.02.17.03.26.01.07-.01.15-.03.21-.06l14.91 8.11a.738.738 0 0 1-.47.05"></path></g><defs><path id="cw" d="m39.21 3.46 14.91 8.11a.656.656 0 0 0-.4-.07l-14.9-8.1c.14-.02.28 0 .39.06z"></path></defs><clipPath id="cx"><use overflow="visible" xlink:href="#cw"></use></clipPath><g clip-path="url(#cx)"><path fill="#223c52" d="M53.73 11.51 38.82 3.4c.09-.01.18-.01.26.01l14.91 8.11a.572.572 0 0 0-.26-.01"></path><path fill="#213b51" d="M53.98 11.52 39.07 3.41c.04.01.08.03.12.04l14.91 8.11c-.04-.01-.08-.03-.12-.04"></path><path fill="#203a50" d="M54.1 11.56 39.19 3.45c.01 0 .02.01.02.01l14.91 8.11s-.01 0-.02-.01"></path></g><path fill="#1c354a" d="M52.97 18.04 38.06 9.93l.01-5.63 14.92 8.11z"></path><defs><path id="cy" d="M52.99 12.41 38.07 4.3c0-.45.33-.84.74-.9l14.91 8.11c-.41.05-.73.45-.73.9z"></path></defs><clipPath id="cz"><use overflow="visible" xlink:href="#cy"></use></clipPath><g clip-path="url(#cz)"><path fill="#1d364b" d="M52.99 12.41 38.07 4.3c0-.11.02-.22.06-.32l14.91 8.11c-.03.1-.05.21-.05.32"></path><path fill="#1d364b" d="M53.04 12.09 38.13 3.98c.02-.04.03-.08.06-.12l14.91 8.11-.06.12"></path><path fill="#1e384d" d="M53.1 11.97 38.19 3.86c.02-.03.04-.07.06-.1l14.91 8.11c-.02.03-.04.06-.06.1"></path><path fill="#1f384d" d="M53.16 11.87 38.25 3.76a.27.27 0 0 1 .07-.08l14.91 8.11c-.03.02-.05.05-.07.08"></path><path fill="#20394f" d="M53.22 11.79 38.31 3.68c.02-.03.05-.05.07-.08l14.91 8.11c-.02.03-.04.05-.07.08"></path><path fill="#203a50" d="M53.3 11.71 38.39 3.6a.55.55 0 0 1 .09-.07l14.91 8.11c-.03.02-.06.05-.09.07"></path><path fill="#213b51" d="M53.39 11.64 38.48 3.53c.04-.03.08-.05.12-.07l14.91 8.11c-.05.02-.09.05-.12.07"></path><path fill="#223c52" d="M53.51 11.57 38.6 3.46c.07-.03.14-.06.22-.07l14.91 8.11c-.08.02-.15.04-.22.07"></path></g><path fill="#29455d" d="M53.73 11.51c.41-.06.74.25.74.69l-.01 5.63c0 .44-.34.85-.74.9-.41.06-.74-.26-.74-.69l.01-5.63c0-.45.32-.85.74-.9z"></path><defs><path id="cA" d="m49.69 19.18-14.91-8.11c-.21-.11-.34-.34-.34-.63l14.91 8.11c0 .29.13.52.34.63z"></path></defs><clipPath id="cB"><use overflow="visible" xlink:href="#cA"></use></clipPath><g clip-path="url(#cB)"><path fill="#1d364b" d="m49.69 19.18-14.91-8.11c-.21-.11-.34-.34-.34-.63l14.91 8.11c0 .29.13.52.34.63"></path></g><path fill="#20384e" d="m50.83 18.35-14.91-8.11.01-5.64 14.91 8.11z"></path><defs><path id="cC" d="M31.54 11.65c.41-.06.74-.46.74-.9l14.91 8.11c0 .44-.33.84-.74.9-4.97-2.7-9.94-5.41-14.91-8.11z"></path></defs><clipPath id="cD"><use overflow="visible" xlink:href="#cC"></use></clipPath><g clip-path="url(#cD)"><path fill="#284159" d="m46.2 19.75-14.91-8.11c.08.02.16.03.25.01.08-.01.15-.03.22-.07l14.91 8.11c-.07.03-.14.05-.22.07-.09.01-.17.01-.25-.01"></path><path fill="#274058" d="m46.67 19.69-14.91-8.11c.04-.02.08-.04.12-.07l14.91 8.11c-.04.03-.08.06-.12.07"></path><path fill="#263f56" d="m46.79 19.63-14.91-8.11c.03-.02.06-.05.09-.07l14.91 8.11c-.03.02-.06.04-.09.07"></path><path fill="#253e55" d="m46.88 19.55-14.91-8.11c.03-.02.05-.05.08-.08l14.91 8.11c-.03.04-.06.06-.08.08"></path><path fill="#243c53" d="m46.95 19.48-14.91-8.11c.02-.03.05-.05.07-.08l14.91 8.11c-.02.02-.05.05-.07.08"></path><path fill="#233b52" d="m47.02 19.39-14.91-8.11c.02-.03.04-.06.06-.1l14.91 8.11c-.02.04-.04.07-.06.1"></path><path fill="#223a51" d="m47.08 19.3-14.91-8.11.06-.12 14.91 8.11-.06.12"></path><path fill="#21394f" d="m47.13 19.17-14.91-8.11c.04-.1.06-.21.06-.32l14.91 8.11c0 .12-.02.22-.06.32"></path></g><defs><path id="cE" d="M35.93 4.6c0-.29-.14-.51-.34-.63l14.91 8.11c.21.11.34.34.34.63-4.48-2.43-10.44-5.68-14.91-8.11z"></path></defs><clipPath id="cF"><use overflow="visible" xlink:href="#cE"></use></clipPath><g clip-path="url(#cF)"><path fill="#21394f" d="M50.84 12.71 35.93 4.6c0-.29-.14-.51-.34-.63l14.91 8.11c.2.12.34.35.34.63"></path></g><defs><path id="cG" d="M31.15 11.58c.11.06.25.09.39.07 4.97 2.7 9.94 5.41 14.91 8.11a.638.638 0 0 1-.39-.07c-4.48-2.43-10.44-5.68-14.91-8.11z"></path></defs><clipPath id="cH"><use overflow="visible" xlink:href="#cG"></use></clipPath><g clip-path="url(#cH)"><path fill="#263f56" d="m46.06 19.69-14.91-8.11c.01 0 .02.01.02.01l14.91 8.11c-.01 0-.02 0-.02-.01"></path><path fill="#274058" d="m46.08 19.7-14.91-8.11c.04.02.08.03.12.04l14.91 8.11c-.04 0-.08-.02-.12-.04"></path><path fill="#284159" d="m46.2 19.75-14.91-8.11c.08.02.16.03.25.01.08-.01.15-.03.22-.07l14.91 8.11c-.07.03-.14.05-.22.07-.09.01-.17.01-.25-.01"></path></g><defs><path id="cI" d="m35.58 3.97 14.91 8.11a.656.656 0 0 0-.4-.07l-14.9-8.1c.14-.02.28 0 .39.06z"></path></defs><clipPath id="cJ"><use overflow="visible" xlink:href="#cI"></use></clipPath><g clip-path="url(#cJ)"><path fill="#223c52" d="M50.1 12.02 35.19 3.91c.09-.01.18-.01.26.01l14.91 8.11a.572.572 0 0 0-.26-.01"></path><path fill="#213b51" d="M50.35 12.03 35.44 3.92c.04.01.08.03.12.04l14.91 8.11c-.04-.01-.07-.03-.12-.04"></path><path fill="#203a50" d="M50.47 12.07 35.56 3.96c.01 0 .02.01.02.01l14.91 8.11s-.01 0-.02-.01"></path></g><path fill="#1c354a" d="m49.35 18.55-14.91-8.11.01-5.63 14.91 8.11z"></path><defs><path id="cK" d="M49.36 12.92 34.45 4.81c0-.45.33-.84.74-.9l14.91 8.11c-.41.05-.74.45-.74.9z"></path></defs><clipPath id="cL"><use overflow="visible" xlink:href="#cK"></use></clipPath><g clip-path="url(#cL)"><path fill="#1d364b" d="M49.36 12.92 34.45 4.81c0-.11.02-.22.06-.32l14.91 8.11c-.04.1-.06.21-.06.32"></path><path fill="#1d364b" d="M49.41 12.6 34.5 4.49c.02-.04.03-.08.06-.12l14.91 8.11-.06.12"></path><path fill="#1e384d" d="M49.47 12.48 34.56 4.37c.02-.03.04-.07.06-.1l14.91 8.11a.88.88 0 0 0-.06.1"></path><path fill="#1f384d" d="M49.53 12.38 34.62 4.27a.27.27 0 0 1 .07-.08L49.6 12.3a.27.27 0 0 0-.07.08"></path><path fill="#20394f" d="M49.59 12.3 34.68 4.19c.02-.03.05-.05.07-.08l14.91 8.11c-.02.03-.04.05-.07.08"></path><path fill="#203a50" d="M49.67 12.22 34.76 4.11a.55.55 0 0 1 .09-.07l14.91 8.11c-.03.02-.06.05-.09.07"></path><path fill="#213b51" d="M49.76 12.15 34.85 4.04c.04-.03.08-.05.12-.07l14.91 8.11c-.04.02-.08.05-.12.07"></path><path fill="#223c52" d="M49.88 12.08 34.97 3.97c.07-.03.14-.06.22-.07l14.91 8.11c-.08.02-.15.04-.22.07"></path></g><path fill="#29455d" d="M50.1 12.02c.41-.06.74.25.74.69l-.01 5.63c0 .44-.34.85-.74.9-.41.06-.74-.26-.74-.69l.01-5.63c0-.45.33-.85.74-.9z"></path><defs><path id="cM" d="m46.06 19.69-14.91-8.11c-.21-.11-.35-.34-.35-.63l14.91 8.11c0 .29.14.52.35.63z"></path></defs><clipPath id="cN"><use overflow="visible" xlink:href="#cM"></use></clipPath><g clip-path="url(#cN)"><path fill="#1d364b" d="m46.06 19.69-14.91-8.11c-.21-.11-.35-.34-.35-.63l14.91 8.11c0 .29.14.52.35.63"></path></g><path fill="#20384e" d="m47.19 18.86-14.91-8.11.01-5.64 14.91 8.11z"></path><defs><path id="cO" d="M32.29 5.11c0-.29-.13-.52-.34-.63l14.91 8.11c.21.11.34.34.34.63-4.47-2.43-10.44-5.68-14.91-8.11z"></path></defs><clipPath id="cP"><use overflow="visible" xlink:href="#cO"></use></clipPath><g clip-path="url(#cP)"><path fill="#21394f" d="M47.2 13.22 32.29 5.11c0-.29-.13-.52-.34-.63l14.91 8.11c.21.12.34.35.34.63"></path></g><defs><path id="cQ" d="m31.95 4.48 14.91 8.11a.656.656 0 0 0-.4-.07l-14.91-8.1c.15-.02.29 0 .4.06z"></path></defs><clipPath id="cR"><use overflow="visible" xlink:href="#cQ"></use></clipPath><g clip-path="url(#cR)"><path fill="#223c52" d="M46.46 12.53 31.55 4.42c.09-.01.18-.01.26.01l14.91 8.11a.566.566 0 0 0-.26-.01"></path><path fill="#213b51" d="M46.72 12.54 31.81 4.43c.04.01.08.02.12.04l14.91 8.11c-.04-.01-.08-.03-.12-.04"></path><path fill="#203a50" d="M46.84 12.58 31.93 4.47c.01 0 .01.01.02.01l14.91 8.11c-.01 0-.01 0-.02-.01"></path></g><path fill="#1c354a" d="M45.71 19.07 30.8 10.95l.01-5.63 14.91 8.11z"></path><defs><path id="cS" d="M45.72 13.43 30.81 5.32c0-.45.34-.85.74-.9l14.91 8.11c-.4.05-.74.46-.74.9z"></path></defs><clipPath id="cT"><use overflow="visible" xlink:href="#cS"></use></clipPath><g clip-path="url(#cT)"><path fill="#1d364b" d="M45.72 13.43 30.81 5.32c0-.11.02-.22.06-.32l14.91 8.11c-.04.1-.06.21-.06.32"></path><path fill="#1d364b" d="M45.78 13.12 30.87 5c.02-.04.03-.08.06-.12l14.91 8.11a.31.31 0 0 0-.06.13"></path><path fill="#1e384d" d="M45.83 12.99 30.92 4.88c.02-.03.04-.07.06-.1l14.91 8.11c-.02.03-.04.07-.06.1"></path><path fill="#1f384d" d="M45.89 12.89 30.98 4.78c.02-.03.05-.05.07-.08l14.91 8.11c-.02.03-.05.05-.07.08"></path><path fill="#20394f" d="M45.96 12.81 31.05 4.7c.02-.03.05-.05.08-.08l14.91 8.11c-.03.03-.06.05-.08.08"></path><path fill="#203a50" d="M46.04 12.73 31.13 4.62a.55.55 0 0 1 .09-.07l14.91 8.11c-.04.02-.07.05-.09.07"></path><path fill="#213b51" d="M46.13 12.66 31.22 4.55c.04-.03.08-.05.12-.07l14.91 8.11c-.05.02-.09.05-.12.07"></path><path fill="#223c52" d="M46.25 12.59 31.34 4.48c.07-.03.14-.05.22-.07l14.91 8.11c-.08.02-.16.04-.22.07"></path></g><path fill="#29455d" d="M46.46 12.53c.41-.06.74.25.74.69l-.01 5.63c0 .44-.33.84-.74.9-.41.06-.74-.26-.74-.69l.01-5.63c0-.44.34-.85.74-.9z"></path><defs><path id="cU" d="M22.52 10.88c.27.15.59.21.93.16l14.91 8.11c-.34.05-.66-.01-.93-.16-4.47-2.43-10.44-5.68-14.91-8.11z"></path></defs><clipPath id="cV"><use overflow="visible" xlink:href="#cU"></use></clipPath><g clip-path="url(#cV)"><path fill="#263f56" d="m37.43 18.99-14.91-8.11c.02.01.04.02.05.03l14.91 8.11a.219.219 0 0 0-.05-.03"></path><path fill="#274058" d="m37.48 19.02-14.91-8.11c.09.04.18.08.27.1l14.91 8.11c-.09-.02-.18-.06-.27-.1"></path><path fill="#284159" d="m37.76 19.12-14.91-8.11c.19.05.39.06.6.03l14.91 8.11c-.21.03-.41.02-.6-.03"></path></g><defs><path id="cW" d="M25.19 8.92c0-.67-.32-1.21-.81-1.47l14.91 8.11c.49.26.81.8.81 1.47 0 1.03-.78 1.98-1.74 2.12l-14.91-8.11c.95-.13 1.73-1.08 1.74-2.12z"></path></defs><clipPath id="cX"><use overflow="visible" xlink:href="#cW"></use></clipPath><g clip-path="url(#cX)"><path fill="#284159" d="m38.36 19.15-14.91-8.11c.18-.02.35-.08.5-.15L38.86 19c-.16.07-.33.13-.5.15"></path><path fill="#274058" d="m38.86 19-14.91-8.11c.1-.05.19-.1.28-.16l14.91 8.11c-.09.06-.18.11-.28.16"></path><path fill="#263f56" d="m39.14 18.84-14.91-8.11c.07-.05.14-.11.21-.17l14.91 8.11c-.06.06-.13.12-.21.17"></path><path fill="#253e55" d="m39.35 18.67-14.91-8.11.18-.18 14.91 8.11c-.05.06-.11.12-.18.18"></path><path fill="#243c53" d="m39.53 18.49-14.91-8.11c.06-.06.11-.13.16-.2l14.91 8.11c-.05.07-.1.14-.16.2"></path><path fill="#233b52" d="m39.69 18.29-14.91-8.11c.05-.07.1-.15.14-.23l14.91 8.11c-.04.08-.09.16-.14.23"></path><path fill="#223a51" d="M39.83 18.06 24.92 9.95c.05-.09.09-.19.13-.29l14.91 8.11c-.03.1-.08.2-.13.29"></path><path fill="#21394f" d="M39.96 17.77 25.05 9.66c.09-.23.13-.48.13-.73 0-.67-.32-1.21-.81-1.47l14.91 8.11c.49.26.81.8.81 1.47.01.25-.04.5-.13.73"></path></g><defs><path id="cY" d="m24.38 7.45 14.91 8.11c-.27-.15-.59-.21-.93-.16L23.45 7.29c.34-.04.66.02.93.16z"></path></defs><clipPath id="cZ"><use overflow="visible" xlink:href="#cY"></use></clipPath><g clip-path="url(#cZ)"><path fill="#669288" d="M38.36 15.4 23.45 7.29c.21-.03.41-.02.6.03l14.91 8.11c-.18-.04-.39-.05-.6-.03"></path><path fill="#648f85" d="M38.96 15.44 24.05 7.32c.1.02.19.06.27.1l14.91 8.11a1.07 1.07 0 0 0-.27-.09"></path><path fill="#618c82" d="M39.24 15.54 24.33 7.43c.02.01.04.02.05.03l14.91 8.11c-.02-.02-.04-.02-.05-.03"></path></g><defs><path id="da" d="m37.43 18.99-14.91-8.11c-.49-.26-.81-.8-.81-1.47 0-1.03.78-1.98 1.74-2.12l14.91 8.11c-.96.13-1.74 1.09-1.74 2.12 0 .67.33 1.21.81 1.47z"></path></defs><clipPath id="db"><use overflow="visible" xlink:href="#da"></use></clipPath><g clip-path="url(#db)"><path fill="#557d74" d="m37.43 18.99-14.91-8.11c-.49-.26-.81-.8-.81-1.47 0-.25.05-.5.13-.73l14.91 8.11c-.09.23-.13.48-.13.73 0 .67.33 1.21.81 1.47"></path><path fill="#578077" d="M36.76 16.79 21.85 8.68c.04-.1.08-.2.13-.29l14.91 8.11c-.05.09-.09.19-.13.29"></path><path fill="#5a827a" d="M36.89 16.49 21.98 8.38c.04-.08.09-.16.14-.23l14.91 8.11c-.05.08-.1.15-.14.23"></path><path fill="#5c857d" d="M37.03 16.26 22.12 8.15c.05-.07.1-.14.16-.2l14.91 8.11c-.06.07-.11.14-.16.2"></path><path fill="#5f8980" d="M37.19 16.07 22.28 7.95l.18-.18 14.91 8.11c-.07.06-.13.12-.18.19"></path><path fill="#618c82" d="M37.37 15.89 22.46 7.77c.07-.06.14-.12.21-.17l14.91 8.11c-.08.06-.15.12-.21.18"></path><path fill="#648f85" d="M37.58 15.72 22.67 7.61c.09-.06.18-.12.28-.16l14.91 8.11c-.1.04-.19.1-.28.16"></path><path fill="#669288" d="M37.86 15.56 22.95 7.45c.16-.08.33-.13.51-.15l14.91 8.11c-.18.02-.35.07-.51.15"></path></g><path fill="#80b5a7" d="M38.36 15.4c.96-.13 1.73.6 1.73 1.63 0 1.03-.78 1.98-1.74 2.12-.96.13-1.73-.6-1.73-1.63.01-1.03.79-1.98 1.74-2.12z"></path><defs><path id="dc" d="M14.87 11.96c.27.15.59.21.93.16l14.91 8.11c-.34.05-.66-.01-.93-.16-4.47-2.44-10.44-5.68-14.91-8.11z"></path></defs><clipPath id="dd"><use overflow="visible" xlink:href="#dc"></use></clipPath><g clip-path="url(#dd)"><path fill="#263f56" d="m29.78 20.07-14.91-8.11c.02.01.04.02.05.03l14.91 8.11a.219.219 0 0 0-.05-.03"></path><path fill="#274058" d="m29.83 20.09-14.91-8.11c.09.04.18.08.27.1l14.91 8.11a.987.987 0 0 1-.27-.1"></path><path fill="#284159" d="M30.11 20.2 15.2 12.09c.19.05.39.06.6.03l14.91 8.11c-.21.03-.41.01-.6-.03"></path></g><defs><path id="de" d="M17.54 10c0-.67-.32-1.21-.81-1.47l14.91 8.11c.49.26.81.8.81 1.47 0 1.03-.78 1.98-1.74 2.12L15.8 12.12c.95-.14 1.73-1.09 1.74-2.12z"></path></defs><clipPath id="df"><use overflow="visible" xlink:href="#de"></use></clipPath><g clip-path="url(#df)"><path fill="#284159" d="M30.71 20.23 15.8 12.12c.18-.02.35-.08.51-.15l14.91 8.11c-.17.07-.34.12-.51.15"></path><path fill="#274058" d="M31.21 20.07 16.3 11.96c.1-.05.19-.1.28-.16l14.91 8.11c-.09.06-.18.12-.28.16"></path><path fill="#263f56" d="M31.49 19.91 16.58 11.8c.07-.05.14-.11.21-.17l14.91 8.11a.87.87 0 0 1-.21.17"></path><path fill="#253e55" d="m31.7 19.75-14.91-8.11.18-.18 14.91 8.11c-.05.06-.11.12-.18.18"></path><path fill="#243c53" d="m31.88 19.57-14.91-8.11c.06-.06.11-.13.16-.2l14.91 8.11c-.05.07-.1.13-.16.2"></path><path fill="#233b52" d="m32.04 19.37-14.91-8.11c.05-.07.1-.15.14-.23l14.91 8.11c-.04.08-.09.15-.14.23"></path><path fill="#223a51" d="m32.18 19.14-14.91-8.11c.05-.09.09-.19.13-.29l14.91 8.11c-.03.09-.08.19-.13.29"></path><path fill="#21394f" d="M32.31 18.84 17.4 10.73c.09-.23.13-.48.13-.73 0-.67-.32-1.21-.81-1.47l14.91 8.11c.49.26.81.8.81 1.47.01.25-.04.5-.13.73"></path></g><defs><path id="dg" d="m16.73 8.53 14.91 8.11c-.27-.15-.59-.21-.93-.16L15.8 8.37c.34-.05.66.01.93.16z"></path></defs><clipPath id="dh"><use overflow="visible" xlink:href="#dg"></use></clipPath><g clip-path="url(#dh)"><path fill="#9b2f47" d="M30.71 16.48 15.8 8.37c.21-.03.41-.02.6.03l14.91 8.11c-.19-.05-.39-.06-.6-.03"></path><path fill="#972e45" d="M31.31 16.51 16.4 8.4c.1.02.19.06.27.1l14.91 8.11c-.08-.04-.17-.07-.27-.1"></path><path fill="#942c44" d="M31.59 16.61 16.68 8.5c.02.01.04.02.05.03l14.91 8.11c-.02-.01-.04-.02-.05-.03"></path></g><defs><path id="di" d="m29.78 20.07-14.91-8.11c-.49-.26-.81-.8-.81-1.47 0-1.03.78-1.98 1.74-2.12l14.91 8.11c-.96.13-1.74 1.09-1.74 2.12 0 .66.33 1.2.81 1.47z"></path></defs><clipPath id="dj"><use overflow="visible" xlink:href="#di"></use></clipPath><g clip-path="url(#dj)"><path fill="#83243a" d="m29.78 20.07-14.91-8.11c-.49-.26-.81-.8-.81-1.47 0-.25.05-.5.13-.73l14.91 8.11c-.09.23-.13.48-.13.73 0 .66.33 1.2.81 1.47"></path><path fill="#86263c" d="M29.11 17.86 14.2 9.75c.04-.1.08-.2.13-.29l14.91 8.11c-.05.09-.1.19-.13.29"></path><path fill="#8a283e" d="M29.24 17.57 14.33 9.46c.04-.08.09-.16.14-.23l14.91 8.11c-.05.07-.1.15-.14.23"></path><path fill="#8d2940" d="M29.38 17.34 14.47 9.23c.05-.07.1-.14.16-.2l14.91 8.11c-.06.06-.11.13-.16.2"></path><path fill="#902b42" d="M29.54 17.14 14.63 9.03l.18-.18 14.91 8.11c-.07.06-.13.12-.18.18"></path><path fill="#942c44" d="M29.72 16.96 14.81 8.85c.07-.06.14-.12.21-.17l14.91 8.11c-.08.06-.15.11-.21.17"></path><path fill="#972e45" d="M29.93 16.79 15.02 8.68c.09-.06.18-.12.28-.16l14.91 8.11c-.1.05-.19.1-.28.16"></path><path fill="#9b2f47" d="M30.21 16.63 15.3 8.52c.16-.08.33-.13.5-.15l14.91 8.11c-.17.02-.34.08-.5.15"></path></g><path fill="#c03f5a" d="M30.71 16.48c.96-.13 1.73.6 1.73 1.63 0 1.03-.78 1.98-1.74 2.12-.96.13-1.73-.6-1.73-1.63.01-1.03.79-1.99 1.74-2.12z"></path><defs><path id="dk" d="M7.22 13.03c.27.15.59.21.93.16 4.39 2.39 8.78 4.78 13.17 7.16l1.74.95c-.34.05-.66-.01-.93-.16-4.47-2.43-10.44-5.68-14.91-8.11z"></path></defs><clipPath id="dl"><use overflow="visible" xlink:href="#dk"></use></clipPath><g clip-path="url(#dl)"><path fill="#263f56" d="M22.13 21.14 7.22 13.03c.02.01.04.02.05.03l14.91 8.11a.219.219 0 0 0-.05-.03"></path><path fill="#274058" d="M22.18 21.17 7.27 13.06c.09.04.18.08.27.1l14.91 8.11c-.09-.02-.18-.06-.27-.1"></path><path fill="#284159" d="M22.46 21.27 7.55 13.16c.19.05.39.06.6.03l14.91 8.11c-.21.03-.42.02-.6-.03"></path></g><defs><path id="dm" d="M9.89 11.07c0-.67-.32-1.21-.81-1.47l14.91 8.11c.49.26.81.8.81 1.47 0 1.03-.78 1.98-1.74 2.12L8.15 13.19c.95-.13 1.73-1.08 1.74-2.12z"></path></defs><clipPath id="dn"><use overflow="visible" xlink:href="#dm"></use></clipPath><g clip-path="url(#dn)"><path fill="#284159" d="M23.06 21.3 8.15 13.19c.18-.02.35-.08.51-.15l14.91 8.11c-.17.08-.34.13-.51.15"></path><path fill="#274058" d="M23.56 21.15 8.65 13.04c.1-.05.19-.1.28-.16l14.91 8.11c-.09.06-.18.11-.28.16"></path><path fill="#263f56" d="M23.84 20.99 8.93 12.88c.07-.05.14-.11.21-.17l14.91 8.11c-.06.06-.13.12-.21.17"></path><path fill="#253e55" d="M24.05 20.82 9.14 12.71l.18-.18 14.91 8.11c-.05.06-.11.12-.18.18"></path><path fill="#243c53" d="M24.23 20.64 9.32 12.53c.06-.06.11-.13.16-.2l14.91 8.11c-.05.07-.1.14-.16.2"></path><path fill="#233b52" d="M24.39 20.44 9.48 12.33c.05-.07.1-.15.14-.23l14.91 8.11c-.04.08-.09.16-.14.23"></path><path fill="#223a51" d="M24.53 20.21 9.62 12.1c.05-.09.09-.19.13-.29l14.91 8.11c-.04.1-.08.2-.13.29"></path><path fill="#21394f" d="M24.66 19.92 9.75 11.81c.09-.23.13-.48.13-.73 0-.67-.32-1.21-.81-1.47l14.91 8.11c.49.26.81.8.81 1.47 0 .25-.04.5-.13.73"></path></g><defs><path id="do" d="m9.08 9.6 14.91 8.11c-.27-.15-.59-.21-.93-.16L8.15 9.44c.34-.04.66.02.93.16z"></path></defs><clipPath id="dp"><use overflow="visible" xlink:href="#do"></use></clipPath><g clip-path="url(#dp)"><path fill="#a4a5a7" d="M23.06 17.56 8.15 9.44c.21-.03.41-.02.6.03l14.91 8.11c-.19-.04-.39-.05-.6-.02"></path><path fill="#a0a2a4" d="M23.66 17.59 8.75 9.47c.1.02.19.06.27.1l14.91 8.11a1.07 1.07 0 0 0-.27-.09"></path><path fill="#9d9ea0" d="M23.94 17.69 9.03 9.58c.01.01.03.01.05.02l14.91 8.11c-.02 0-.04-.01-.05-.02"></path></g><defs><path id="dq" d="M22.13 21.14 7.22 13.03c-.49-.26-.81-.8-.81-1.47 0-1.03.78-1.98 1.74-2.12l14.91 8.11c-.96.13-1.74 1.09-1.74 2.12 0 .67.33 1.21.81 1.47z"></path></defs><clipPath id="dr"><use overflow="visible" xlink:href="#dq"></use></clipPath><g clip-path="url(#dr)"><path fill="#8a8c8e" d="M22.13 21.14 7.22 13.03c-.49-.26-.81-.8-.81-1.47 0-.25.05-.5.13-.73l14.91 8.11c-.09.23-.13.48-.13.73 0 .67.33 1.21.81 1.47"></path><path fill="#8e8f92" d="M21.46 18.94 6.55 10.83c.04-.1.08-.2.13-.29l14.91 8.11c-.05.09-.1.19-.13.29"></path><path fill="#929395" d="M21.59 18.65 6.68 10.53c.04-.08.09-.16.14-.23l14.91 8.11c-.05.08-.1.16-.14.24"></path><path fill="#959799" d="M21.73 18.41 6.82 10.3c.05-.07.1-.14.16-.2l14.91 8.11c-.06.07-.11.14-.16.2"></path><path fill="#999a9c" d="M21.89 18.22 6.98 10.1l.18-.18 14.91 8.11c-.07.06-.13.12-.18.19"></path><path fill="#9d9ea0" d="M22.07 18.04 7.16 9.93c.07-.06.14-.12.21-.17l14.91 8.11c-.08.05-.15.11-.21.17"></path><path fill="#a0a2a4" d="M22.28 17.87 7.37 9.76c.09-.06.18-.12.28-.16l14.91 8.11c-.1.04-.19.1-.28.16"></path><path fill="#a4a5a7" d="M22.56 17.71 7.65 9.6c.16-.08.33-.13.5-.15l14.91 8.11c-.17.02-.34.07-.5.15"></path></g><path fill="#cdcecf" d="M23.06 17.56c.96-.13 1.73.6 1.73 1.63 0 1.03-.78 1.98-1.74 2.12-.96.13-1.73-.6-1.73-1.63.01-1.04.79-1.99 1.74-2.12z"></path><defs><path id="ds" d="M17.55 25.98 2.64 17.87c-.4-.22-.67-.67-.67-1.22l14.91 8.11c.01.56.27 1 .67 1.22z"></path></defs><clipPath id="dt"><use overflow="visible" xlink:href="#ds"></use></clipPath><g clip-path="url(#dt)"><path fill="#21394f" d="M17.55 25.98 2.64 17.87c-.4-.22-.67-.67-.67-1.22l14.91 8.11c.01.56.27 1 .67 1.22"></path></g><path fill="#2a445c" d="M18.35 14.07 3.44 5.96 45.74.01l14.91 8.11z"></path><path fill="#20384e" d="M16.89 24.76 1.98 16.65l.01-8.93 14.91 8.11z"></path><path fill="#314d68" d="M60.65 8.12c.79-.11 1.43.5 1.43 1.35l-.02 8.94c0 .86-.64 1.65-1.44 1.76l-42.3 5.94c-.8.11-1.44-.49-1.44-1.35l.02-8.94c0-.86.64-1.65 1.44-1.76l42.31-5.94zM30.71 20.23c.96-.13 1.74-1.09 1.74-2.12s-.78-1.76-1.73-1.63c-.96.13-1.74 1.09-1.74 2.12-.01 1.03.77 1.76 1.73 1.63m7.65-1.08c.96-.13 1.74-1.09 1.74-2.12s-.78-1.76-1.73-1.63c-.96.13-1.74 1.09-1.74 2.12-.01 1.03.77 1.77 1.73 1.63m-15.3 2.15c.96-.13 1.74-1.09 1.74-2.12s-.78-1.76-1.73-1.63c-.96.13-1.74 1.09-1.74 2.12-.01 1.03.77 1.77 1.73 1.63m27.77-2.95.01-5.63c0-.45-.33-.75-.74-.69-.41.06-.74.46-.74.9l-.01 5.63c0 .44.33.75.74.69.4-.06.74-.47.74-.9m3.62-.51.01-5.63c0-.45-.33-.75-.74-.69-.41.06-.74.46-.74.9l-.01 5.63c0 .44.33.75.74.69.41-.06.74-.47.74-.9m-7.26 1.02.01-5.63c0-.45-.33-.75-.74-.69-.41.06-.74.46-.74.9l-.01 5.63c0 .44.33.75.74.69.41-.06.74-.46.74-.9m10.89-1.53.01-5.63c0-.45-.33-.75-.74-.69-.41.06-.74.46-.74.9l-.01 5.63c0 .44.33.75.74.69.41-.06.74-.47.74-.9"></path><defs><path id="du" d="M16.9 15.83 1.99 7.72c0-.86.64-1.65 1.44-1.76l14.91 8.11c-.79.11-1.43.9-1.44 1.76z"></path></defs><clipPath id="dv"><use overflow="visible" xlink:href="#du"></use></clipPath><g clip-path="url(#dv)"><path fill="#21394f" d="M16.9 15.83 1.99 7.72c0-.21.04-.42.11-.61l14.91 8.11c-.07.19-.11.4-.11.61"></path><path fill="#223a51" d="M17.02 15.21 2.11 7.1c.03-.08.07-.16.11-.24l14.91 8.11c-.05.08-.08.16-.11.24"></path><path fill="#233b52" d="M17.12 14.97 2.21 6.86c.04-.07.07-.13.12-.19l14.91 8.11c-.04.06-.08.13-.12.19"></path><path fill="#243c53" d="M17.24 14.78 2.33 6.67c.04-.06.08-.11.13-.16l14.91 8.11c-.04.05-.09.1-.13.16"></path><path fill="#253e55" d="M17.37 14.62 2.46 6.51l.15-.15 14.91 8.11c-.05.04-.1.09-.15.15"></path><path fill="#263f56" d="M17.52 14.47 2.61 6.36c.06-.05.11-.1.17-.14l14.91 8.11c-.06.04-.12.09-.17.14"></path><path fill="#274058" d="M17.69 14.33 2.78 6.22c.07-.05.15-.1.23-.13l14.91 8.11c-.07.03-.15.08-.23.13"></path><path fill="#284159" d="M17.93 14.2 3.02 6.08c.13-.06.27-.11.42-.13l14.91 8.11c-.15.03-.29.07-.42.14"></path></g></svg>